<?xml version="1.0" encoding="UTF-8"?><svg id="Layer_1" xmlns="http://www.w3.org/2000/svg" width="32" height="32" xmlns:xlink="http://www.w3.org/1999/xlink" viewBox="0 0 32 32"><defs><clipPath id="clippath"><rect x=".0772" y="-.0485" width="32.3391" height="32.2407" fill="none"/></clipPath><clipPath id="clippath-1"><rect x="10.5896" y="10.0606" width="11.3178" height="12.8971" fill="none"/></clipPath></defs><g clip-path="url(#clippath)"><path d="M.0772-.0485h32.3391v32.2407H.0772V-.0485Z" fill="#fff"/><path d="M.0772-.0485h32.3391v32.2407H.0772V-.0485Z" fill="#fcf7ea"/></g><g clip-path="url(#clippath-1)"><path d="M11.2989,12.811c.0957.0694.1741.2386.3307.5076.1697.282.4308.4989.6832.6811.1653.1171.2785.2126.3307.2733.4003.4729.4351.9891.57,1.6962.0653.347.3655,1.2494.7919,1.3752.5831.1692.7049-.4902.6832-.911-.0044-.1258-.0348-.5856-.0957-1.3839-.0218-.282-.0087-.5596.0348-.8242.0479-.269.1871-.4685.3916-.7939.0392-.0651.0609-.1605.0609-.2907-.0044-.3601.0174-.6898.0566-.9978.0218-.1952.0957-.3687.2176-.5249.1566-.2039.2872-.3774.3525-.6464.087-.334.1218-.6854.3307-.8589.0522-.0434.1305-.039.1784.0087.2524.269.2437.7158.409,1.0932.0914.2039.322.4078.4221.6377.1654.3991.1262.9153.1218,1.3361-.0044.2733.1784.4425.3176.6681.2567.4034.2698.9761.2393,1.4793-.0435.6073-.0653,1.0108-.074,1.206-.0087.2343.0566.4295.1915.5943.161.1865.3916.2603.5918.1085.3612-.282.57-.9414.6614-1.3795.1523-.7722.3263-1.4142,1.0313-1.8524.2872-.1779.5135-.282.657-.5466.1392-.2559.2393-.5032.4482-.6203.0609-.0347.1392-.0043.161.0607.0348.1085.0479.2256.0305.3601-.0305.321-.0348.5466-.0087.6767.0174.0737.074.2733.1741.5987.0392.1215.0392.3123.0087.577-.0392.321-.1392.6377-.2828.9761-.1784.4165-.2698.6637-.2524,1.0758.0044.0607.0218.2386.0566.5466.0348.3644-.2741.8156-.5352,1.1583-.2567.334-.4264.7158-.5091,1.1409-.1175.5987-.4308,1.0542-.9442,1.3578-.3525.2082-.5004.282-.7702.5336-.5135.4772-.9703.8373-1.684.9414-.6875.1041-1.3359,0-1.9363-.308-.1741-.0868-.4177-.2603-.7354-.5206-.2263-.1865-.4699-.3601-.731-.5206-.5309-.321-.879-.6594-1.0182-1.2233-.0174-.0607-.0479-.2386-.0957-.5336-.0566-.3644-.2828-.5987-.5787-.9717-.3612-.4642-.3438-.9457-.3351-1.5704.0087-.4859-.1436-.7939-.409-1.3708-.1523-.3427-.248-.6984-.1915-1.0672.0348-.2169.1915-.4555.2698-.6551.1044-.2646.0827-.5856.1001-1.0281.0044-.0998.0435-.1865.1131-.2559.0479-.0477.1175-.0521.1697-.013Z" fill="#d8d1aa"/></g></svg>