<?xml version="1.0" encoding="UTF-8"?><svg id="Layer_1" xmlns="http://www.w3.org/2000/svg" width="32" height="32" xmlns:xlink="http://www.w3.org/1999/xlink" viewBox="0 0 32 32"><defs><clipPath id="clippath"><rect x="-.4395" y="-.4668" width="32.7574" height="32.659" fill="none"/></clipPath><clipPath id="clippath-1"><rect x="2.8354" y="2.7982" width="11.4642" height="13.0645" fill="none"/></clipPath><clipPath id="clippath-2"><rect x="17.8565" y="9.3327" width="11.4642" height="13.0645" fill="none"/></clipPath><clipPath id="clippath-3"><rect x="2.8354" y="17.9852" width="11.4642" height="13.0469" fill="none"/></clipPath></defs><g clip-path="url(#clippath)"><path d="M-.4395-.4668h32.7574v32.659H-.4395V-.4668Z" fill="#fff"/><path d="M-.4395-.4668h32.7574v32.659H-.4395V-.4668Z" fill="#fcf7ea"/></g><g clip-path="url(#clippath-1)"><path d="M3.5538,5.5843c.097.0703.1763.2417.335.5141.1719.2856.4364.5054.692.6899.1675.1186.2821.2153.335.2768.4055.479.4408,1.0019.5774,1.7182.0661.3515.3702,1.2656.8022,1.393.5906.1714.714-.4966.692-.9228-.0044-.1274-.0353-.5932-.097-1.4018-.022-.2856-.0088-.5669.0353-.8349.0485-.2725.1895-.4746.3967-.8042.0397-.0659.0617-.1626.0617-.2944-.0044-.3647.0176-.6987.0573-1.0107.022-.1977.097-.3735.2204-.5317.1587-.2065.2909-.3823.357-.6548.0882-.3384.1234-.6943.335-.8701.0529-.0439.1322-.0396.1807.0088.2556.2725.2468.7251.4143,1.1074.0926.2065.3262.4131.4275.646.1675.4043.1278.9272.1234,1.3535-.0044.2768.1807.4482.3218.6767.26.4087.2733.9887.2424,1.4985-.0441.6152-.0661,1.0239-.0749,1.2216-.0088.2373.0573.435.1939.602.1631.189.3967.2637.5994.1099.3658-.2856.5774-.9536.67-1.3974.1543-.7822.3306-1.4326,1.0446-1.8764.2909-.1802.5201-.2856.6655-.5537.141-.2593.2424-.5097.454-.6284.0617-.0352.141-.0044.1631.0615.0353.1099.0485.2285.0309.3647-.0309.3252-.0353.5537-.0088.6855.0176.0747.0749.2768.1763.6064.0397.123.0397.3164.0088.5845-.0397.3252-.141.646-.2865.9887-.1807.4219-.2733.6723-.2556,1.0898.0044.0615.022.2417.0573.5537.0353.3691-.2777.8261-.5421,1.1733-.26.3384-.4319.7251-.5157,1.1557-.119.6064-.4364,1.0678-.9565,1.3754-.357.2109-.5069.2856-.7801.5405-.5201.4834-.9829.8481-1.7057.9536-.6964.1055-1.3531,0-1.9614-.312-.1763-.0879-.4231-.2637-.7449-.5273-.2292-.189-.476-.3647-.7405-.5273-.5377-.3252-.8903-.6679-1.0314-1.2392-.0176-.0615-.0485-.2417-.097-.5405-.0573-.3691-.2865-.6064-.5862-.9843-.3658-.4702-.3482-.958-.3394-1.5908.0088-.4922-.1455-.8042-.4143-1.3886-.1543-.3472-.2512-.7075-.1939-1.081.0353-.2197.1939-.4614.2733-.6636.1058-.2681.0837-.5932.1014-1.0415.0044-.1011.0441-.189.1146-.2593.0485-.0483.119-.0527.1719-.0132Z" fill="#d8d1aa"/></g><g clip-path="url(#clippath-2)"><path d="M18.5749,12.1143c.0926.0703.1719.2461.335.5141.1719.29.4364.5054.6876.6899.1719.123.2821.2153.3394.2812.4011.479.4364.9975.573,1.7138.0661.3515.3746,1.2656.8022,1.393.5906.1758.714-.4966.6964-.9228-.0044-.123-.0397-.5932-.097-1.4018-.022-.2856-.0088-.5625.0353-.8349s.1895-.4702.3967-.8042c.0397-.0659.0573-.1626.0573-.29,0-.3647.0176-.7031.0573-1.0151.0264-.1934.1014-.3691.2204-.5273.1631-.2109.2909-.3867.3614-.6548.0837-.3428.1234-.6987.335-.8745.0529-.0439.1322-.0395.1763.0132.26.2725.2512.7251.4187,1.1074.0882.2021.3262.4131.4231.6416.1719.4043.1322.9272.1234,1.3579-.0044.2768.1851.4482.3262.6723.2556.4131.2733.9887.238,1.5029-.0397.6152-.0661,1.0195-.0705,1.2216-.0132.2329.0529.435.1939.5976.1631.1934.3923.2681.595.1099.3658-.2856.5818-.9536.67-1.3974.1587-.7778.335-1.4282,1.049-1.872.2865-.1802.5157-.29.6655-.5581.141-.2549.2424-.5097.454-.624.0617-.0352.141-.0044.1631.0615.0353.1055.0441.2285.0309.3647-.0353.3208-.0397.5493-.0088.6855.0176.0747.0749.2768.1763.6064.0397.1186.0397.312.0088.5801-.0397.3252-.141.6504-.2865.9887-.1807.4263-.2777.6767-.2556,1.0942.0044.0571.022.2417.0529.5493.0397.3691-.2733.8305-.5377,1.1777-.26.3384-.4319.7207-.5157,1.1513-.119.6108-.4364,1.0678-.9565,1.3754-.357.2153-.5069.29-.7801.5405-.5201.4834-.9829.8481-1.7057.958-.7008.1055-1.3531,0-1.9614-.312-.1763-.0923-.4231-.2681-.7449-.5317-.2292-.189-.476-.3603-.7405-.5229-.5421-.3296-.8903-.6679-1.0358-1.2392-.0132-.0615-.0441-.2461-.0926-.5405-.0573-.3691-.2865-.6064-.5862-.9887-.3702-.4702-.3482-.958-.3394-1.5864.0088-.4922-.1455-.8086-.4143-1.393-.1543-.3428-.2512-.7031-.1939-1.0766.0353-.2241.1939-.4658.2733-.6635.1014-.2681.0793-.5976.1014-1.0415.0044-.1055.0397-.189.1146-.2637.0485-.0439.119-.0483.1719-.0132Z" fill="#d8d1aa"/></g><g clip-path="url(#clippath-3)"><path d="M3.5538,20.7712c.097.0703.1763.2417.335.5141.1719.2856.4364.5054.692.6899.1675.1186.2821.2153.335.2768.4055.479.4408,1.0019.5774,1.7182.0661.3515.3702,1.2656.8022,1.393.5906.1714.714-.4966.692-.9228-.0044-.1274-.0353-.5932-.097-1.4018-.022-.2856-.0088-.5669.0353-.8349.0485-.2725.1895-.4746.3967-.8042.0397-.0659.0617-.1626.0617-.2944-.0044-.3647.0176-.6987.0573-1.0107.022-.1977.097-.3735.2204-.5317.1587-.2065.2909-.3823.357-.6548.0882-.3384.1234-.6943.335-.8701.0529-.0439.1322-.0395.1807.0088.2556.2725.2468.7251.4143,1.1074.0926.2065.3262.4131.4275.646.1675.4043.1278.9272.1234,1.3535-.0044.2768.1807.4482.3218.6767.26.4087.2733.9887.2424,1.4985-.0441.6152-.0661,1.0239-.0749,1.2216-.0088.2373.0573.435.1939.602.1631.189.3967.2637.5994.1099.3658-.2856.5774-.9536.67-1.3974.1543-.7822.3306-1.4326,1.0446-1.8764.2909-.1802.5201-.2856.6655-.5537.141-.2593.2424-.5097.454-.6284.0617-.0352.141-.0044.1631.0615.0353.1099.0485.2285.0309.3647-.0309.3252-.0353.5537-.0088.6855.0176.0747.0749.2768.1763.6064.0397.123.0397.3164.0088.5845-.0397.3252-.141.646-.2865.9887-.1807.4219-.2733.6723-.2556,1.0898.0044.0615.022.2417.0573.5537.0353.3691-.2777.8261-.5421,1.1733-.26.3384-.4319.7251-.5157,1.1513-.119.6108-.4364,1.0722-.9565,1.3798-.357.2109-.5069.2856-.7801.5405-.5201.4834-.9829.8481-1.7057.9536-.6964.1055-1.3531,0-1.9614-.312-.1763-.0879-.4231-.2637-.7449-.5273-.2292-.189-.476-.3647-.7405-.5273-.5377-.3252-.8903-.6679-1.0314-1.2392-.0176-.0615-.0485-.2417-.097-.5405-.0573-.3691-.2865-.6064-.5862-.9843-.3658-.4702-.3482-.958-.3394-1.5908.0088-.4922-.1455-.8042-.4143-1.3886-.1543-.3472-.2512-.7075-.1939-1.081.0353-.2197.1939-.4614.2733-.6636.1058-.2681.0837-.5932.1014-1.0415.0044-.1011.0441-.189.1146-.2593.0485-.0483.119-.0527.1719-.0132Z" fill="#d8d1aa"/></g></svg>