<?xml version="1.0" encoding="UTF-8"?><svg id="Layer_1" xmlns="http://www.w3.org/2000/svg" width="32" height="32" xmlns:xlink="http://www.w3.org/1999/xlink" viewBox="0 0 32 32"><defs><clipPath id="clippath"><rect x="2.307" y=".939" width="28.0625" height="18.3906" fill="none"/></clipPath><clipPath id="clippath-1"><rect x="4.8747" y="2.4025" width="24" height="16.9271" fill="none"/></clipPath><clipPath id="clippath-2"><rect x="-.4586" y="10.4025" width="33.3333" height="20" fill="none"/></clipPath><clipPath id="clippath-3"><rect x="6.7193" y="4.6516" width="19.3578" height="31.9341" transform="translate(-7.1266 32.4767) rotate(-78.2557)" fill="none"/></clipPath><clipPath id="clippath-4"><rect x="6.7193" y="4.6516" width="19.3578" height="31.9341" transform="translate(-7.1266 32.4767) rotate(-78.2557)" fill="none"/></clipPath></defs><g clip-path="url(#clippath)"><path d="M27.781,22.7098c-.75,1.0417-2.0469,1.5417-3.3021,1.2708-.2708-.0573-.5365-.1458-.7917-.2708-.1406-.0625-.2865-.125-.4583-.2083-.1042-.026-.1927-.0469-.2708-.0625-.0365-.0104-.0677-.0156-.099-.0208-.0156-.0052-.026-.0052-.0417-.0104-2.6719-.5573-5.6146-.7865-8.75-.6771-.7292.0312-1.5833.0781-2.4427.1354-.7813.1406-1.5677.3437-2.2344.526-.0104,0-.0208.0052-.0312.0104-.1667.0365-.349.0833-.5365.1354-.875.2344-1.8646.5-2.8854.2812-.4792-.099-.9167-.3021-1.2969-.6042-.6354-.5-.9896-1.2187-1.0104-2.0365-.026-.9062.3698-1.8594,1.0469-2.5156-.224-2.0469-.5521-4.0104-.974-5.8437-.151-.6615-.3021-1.3229-.4531-1.9687-.2708-1.1563-.5469-2.3594-.7917-3.5521-.0833-.4219-.151-.9323.0104-1.4896.3229-1.2292,1.6094-2.0104,2.8854-1.7396.1771.0417.349.099.5104.1719.5833.2604,1.0104.6771,1.3542,1.0104.0729.0729.1458.1458.224.2135.0104.0104.0208.0208.0313.0312.7552.7604,1.4427,1.5469,2.0677,2.2865.2448.2865.4687.5573.6823.8177.2656-.5.526-.9948.7865-1.4792.1354-.2448.2656-.4948.3958-.7396l.0156-.026c.4167-.7865.8385-1.5729,1.2552-2.3594.0104-.0208.0208-.0365.0313-.0521.1042-.1771.2083-.3802.3125-.5937.2812-.5625.599-1.1927,1.1719-1.7135.0417-.0365.0885-.0729.1406-.1042.6563-.4375,1.3802-.5833,2.0885-.4323,1.7969.3802,2.9375,2.5469,3.7708,4.125.1615.3021.2969.5677.4167.7604.0104.0208.0208.0417.0312.0677.2187.4271.4323.8594.6458,1.2813.1458-.1146.2917-.2344.4427-.349.4375-.349.875-.6979,1.3177-1.0521.1615-.1302.3281-.2604.4948-.3958.6094-.4896,1.2344-.9948,1.875-1.4792.8229-.651,1.9167-1.3646,3.1094-1.1094.5417.1146,1.0312.4271,1.4115.901.0156.0156.026.0365.0417.0521.724,1.0208.474,2.125.2917,2.9375-.0521.224-.099.4375-.1198.6146,0,.0313-.0052.0625-.0156.0938-.3906,1.9844-.8333,3.9844-1.2656,5.9219l-.2448,1.125c-.3125,1.4062-.6302,2.8542-.9792,4.2865.0885.1146.1719.2344.25.3646.0052.0052.0052.0104.0104.0104.6562,1.1146.6094,2.4375-.125,3.4531Z" fill="#d7b535"/></g><g clip-path="url(#clippath-1)"><path d="M7.7445,18.9911c.0521-.0365.0625-.0833.0365-.1458-.0313-.0729-.0365-.0729-.0313.0052.0052.0521-.026.099-.0677.1042-.099.0156-.1406-.0781-.0677-.151.0312-.0312.026-.0417-.0208-.0312-.0365.0156-.0729.0573-.0833.099-.0104.0417-.0417.0729-.0677.0625-.0312-.0052-.0365-.0677-.0208-.1406.0156-.0781,0-.1354-.0521-.1458-.0677-.0156-.0729-.151-.0052-.3229.0469-.1354.0417-.4323-.0156-.4167-.026.0104-.0469.0625-.0417.1146.0104.0677,0,.0781-.0365.026-.0625-.0885-.0417-.6875.026-.7135.1354-.0573.1042-.151-.0573-.1719-.1458-.026-.1719-.0469-.1615-.1562.0052-.0677.0469-.1406.0885-.1562.0625-.0208.0625-.0313-.0052-.0469-.0521-.0104-.125.0156-.1667.0573-.0729.0677-.0781.0677-.0365-.0052.026-.0469.0208-.099-.0104-.1146-.0417-.0312-.0313-.0729.0469-.1875.0833-.1354.0885-.1875.026-.4219-.0469-.1667-.0833-.2292-.099-.1667-.0156.0677-.0365.0312-.0677-.1042-.026-.1094-.0677-.224-.0885-.2552-.026-.0365-.0156-.0573.026-.0677.0885-.0104.1146-.1042.0365-.1042-.0365,0-.0781-.0469-.099-.1042-.0312-.0833-.0208-.1146.0469-.1406.0833-.026.0573-.0625-.0469-.0677-.0208-.0052-.0417-.0729-.0469-.1562v-.151l-.0625.125c-.0521.099-.0625.1042-.0729.026-.0104-.0573.026-.125.0833-.1615.0573-.0365.0885-.0781.0781-.099-.0104-.0208.0104-.0833.0521-.1354.0781-.0937.0729-.0937-.0156-.0208q-.099.0729-.1302-.0417c-.0417-.1458-.0313-.1927.026-.1354.026.026.0521.0052.0625-.0365.0104-.0469-.0104-.0833-.0417-.0833-.0365,0-.0677-.0312-.0729-.0781-.0052-.0521.0104-.0573.0469-.0208.0417.0365.0521.0365.0365-.0104-.0312-.0885-.125-.0573-.2135.0729-.0625.0885-.0677.0885-.0417-.0469.0156-.0781.0521-.1354.0781-.1302.0312.0052.0469-.026.0417-.0729-.0104-.0469.026-.1198.0781-.1562.0833-.0729.0781-.0729-.0417-.0104-.1198.0625-.125.0625-.1563-.0781-.0156-.0781-.0469-.1458-.0781-.151-.0469-.0156-.1094-.401-.0677-.474.0104-.0208.0156-.0937.0104-.1562-.0052-.1146-.0104-.1146-.1094-.0312-.0937.0781-.0937.0729-.0312-.0521.0469-.099.0469-.1302-.0156-.1198-.0573.0052-.0625-.026-.0156-.125.0469-.1094.0417-.1302-.0312-.1198-.1094.0104-.125-.1719-.0208-.2396.0417-.026.0469-.0469.0208-.0469-.1302-.0052-.1875-.0521-.1458-.1146.026-.0417.026-.0885.0052-.1146-.026-.0208-.0312-.0833-.0208-.1354.0104-.0573,0-.1198-.0313-.151-.0312-.0312-.0417-.0208-.0208.026.0156.0521.0052.0625-.026.0312-.026-.026-.026-.0781,0-.1198.026-.0365.0156-.0729-.0156-.0833-.0313-.0052-.0417-.0312-.0208-.0521.0208-.0208.0104-.0885-.0156-.151-.0313-.0625-.0469-.1458-.0365-.1823.0052-.0417-.0104-.1094-.0417-.1562-.0313-.0469-.0365-.1458-.0104-.2187.026-.0677.026-.1302.0052-.1354-.026-.0052-.0469-.0521-.0521-.1094-.0052-.0521-.0469-.2083-.0885-.3437-.0417-.1406-.0677-.25-.0573-.2448.0156,0-.0104-.0521-.0521-.1198-.0417-.0729-.0677-.1875-.0521-.2604.0156-.0677.0104-.1302-.0156-.1354-.026-.0104-.0365-.0417-.026-.0781.0521-.1875.0365-.2604-.0417-.2448-.0573.0052-.0781-.026-.0573-.1094.0156-.0677,0-.1615-.0365-.2083-.0365-.0469-.0417-.1146-.0156-.151.0313-.0469.0156-.0677-.0417-.0573-.0521.0052-.0781-.0156-.0677-.0521.0573-.151.0573-.2969.0052-.3854-.0365-.0521-.0573-.1094-.0573-.125.0313-.1042.0313-.1354-.0156-.1198-.0625.0208-.099-.1406-.0417-.1979.0208-.0208.0156-.0573-.0104-.0781-.026-.026-.0365-.0729-.0312-.1094.0104-.0417.026-.0417.0417.0104.0156.0469.0469.0469.1094.0104.0573-.0417.0625-.0625.0208-.0729-.0313-.0052-.0365-.0417-.0104-.0781.0208-.0417.0156-.0833-.0156-.1042-.0417-.026-.0312-.0625.0417-.1562l.0938-.125.151.1562c.1406.1458.2135.3125.0833.1927-.0312-.0313-.0417-.0313-.0208.0052.0156.0312.0573.0625.0885.0677.0365.0104.0729.0729.0885.1406.0104.0729.0521.1354.0885.1458.1146.026.1406.0417.1927.1094.026.0365.0313.0833.0104.1094-.0208.0208-.0156.0365.0156.0365.026,0,.0469.0156.0417.0417-.0156.0833.1042.1667.1615.1094.0365-.0365.0469-.0208.0313.0365-.0104.0573.0208.099.0885.1146.0781.0208.0937.0469.0625.099-.0573.0833.0312.1771.1042.1042.0365-.0365.0625-.0365.0781.0104.0104.0365-.0052.0625-.0313.0573-.0312-.0104-.0521.026-.0417.0729.0104.0625.0313.0729.0938.0417.0677-.0365.0833-.026.0677.0417-.0104.0521.0052.0781.0365.0677.0573-.0156.0833.026.2917.401.0573.099.1354.1927.1823.2135.0469.0208.1458.1354.2188.2552s.1823.2292.2396.2396c.0781.0208.0938.0521.0573.1198-.0312.0573-.0208.099.0208.1042.1875.0365.2448.0781.224.1719-.0156.0729.0052.099.0729.0885.0677-.0104.0729.0052.0313.0469s-.0313.0573.0365.0469c.0573-.0104.0885.0104.0781.0573-.0104.0365.0365.125.1042.1927q.1198.125.0677.0104c-.0521-.1094-.0469-.1094.0417.0156.0521.0677.1146.125.1354.1198.0156-.0052.0365.0312.0417.0833.0052.0469.0208.0885.0365.0885.0729-.0052.1875.1198.1719.1875-.0104.0521.0208.0781.099.0729.0833,0,.099.0156.0677.0677-.026.0365-.026.0625,0,.0521.0313-.0104.0781.0521.1094.1302.0312.0833.0833.1458.1146.1302.0365-.0104.0833.0312.1146.0937.026.0625.0521.0937.0625.0677.0052-.026.0417.0104.0781.0781.0365.0677.1094.1458.1667.1719.0573.026.0833.0781.0625.1302-.0208.0469-.0156.0885.0156.0937.0312.0104.0625-.0104.0677-.0417.0052-.026.0573.0208.1198.1042.0573.0885.1406.1562.1771.151.0417-.0052.0781.0573.0885.1458s.0312.1302.0417.0937c.0104-.0365.0365-.0469.0625-.026.0208.0208.0208.0729-.0052.1146-.0365.0521-.0208.0729.0885.0781.099,0,.1354.0313.1354.1146.0052.0729.0365.1094.0937.099.0573-.0052.0781.0208.0677.0677s.0052.0729.0365.0625c.026-.0104.099.0521.1562.1406l.1094.1562.1042-.151c.0573-.0833.125-.2344.1406-.3437.0312-.1615.0573-.1927.1406-.1719.0833.0156.0938.0052.0521-.0729-.0313-.0625-.026-.0885.0156-.0781.0312.0104.0625-.0104.0677-.0417.0052-.0313-.0156-.0469-.0469-.0313-.099.0313-.0365-.0937.1042-.2083.0729-.0573.1198-.1302.1094-.1667-.0104-.0312.0156-.099.0625-.1562.1198-.151.224-.3698.2813-.6042.0313-.1302.099-.2448.1719-.2969.0677-.0469.1406-.1354.1562-.2031.026-.0833.0625-.1042.1354-.0781.0573.0156.0729.0156.0417-.0104-.0312-.0208-.0417-.0625-.0208-.0833.026-.0208.0052-.0469-.0365-.0573-.1042-.026-.0833-.125.0833-.3646.0833-.1146.1562-.1771.1927-.151.0417.026.0573,0,.0573-.0781-.0052-.1094.0052-.1094.0677-.0312.0625.0833.0677.0833.0573,0-.0156-.1146-.151-.151-.1771-.0417-.0052.0417-.0365.0573-.0625.0312-.0313-.0312-.0208-.0625.026-.099.0417-.0312.0677-.0885.0521-.125-.0104-.0417.0469-.1042.1302-.151.0833-.0469.1198-.0729.0781-.0573-.0469.0156-.0573-.0156-.0365-.1042.0156-.0729.0469-.125.0729-.1198.026.0052.0417.0365.0312.0677-.0052.026.0156.0417.0469.0312.026-.0052.0573-.0885.0677-.1771.0104-.0833.0365-.151.0677-.1458.0417.0104.0521.0885.0156.1771-.0052.0208.026.0312.0729.026.0677-.0104.0729-.026.0365-.0677-.0573-.0573.0365-.2604.1146-.2448.0781.0208.026-.151-.0625-.2031-.0521-.0312-.0729-.0885-.0521-.1354.0208-.0469.0469-.1146.0573-.1562.0208-.0573.0313-.0521.0885.0156.0365.0521.0417.0937.0052.1042s-.0469.0573-.0312.099c.0469.1458.1302-.0156.099-.1979-.026-.1406-.0156-.1771.0521-.1979.0417-.0156.1042-.1042.1354-.1927.0365-.1146.0365-.151-.0052-.1094-.0469.0417-.0625.0208-.0677-.0885,0-.1094.026-.1615.099-.1927.0677-.026.1198-.1094.1406-.2135.026-.151.0365-.1562.0781-.0625.0521.1198.0885.0937.1875-.125.0521-.099.0521-.125.0052-.0781-.0833.0729-.1146.0312-.1094-.1302,0-.0625.0208-.099.0469-.0729.0208.0208.0521-.0052.0625-.0677.0156-.0573.0469-.099.0781-.0938.026.0052.0573-.0208.0677-.0625.0104-.0365.0365-.0781.0625-.0833.0208-.0052.0156-.0156-.0208-.0156-.0885.0052-.0937-.1094-.0156-.224.0521-.0781.0573-.0781.0469-.0052-.0104.0469,0,.1042.0156.1198.0208.0208.0521-.0781.0729-.2135.0312-.1875.0469-.224.0833-.151.0312.0781.0417.0729.0417-.026,0-.0677.0208-.125.0417-.1302.0208,0,.0729-.0781.1146-.1667.0521-.1198.0521-.1562,0-.1406-.0573.0156-.0521.0052.0104-.0365.0417-.0313.0938-.1302.1198-.2292.0208-.0938.0573-.1563.0781-.1302.0208.0208.0417.0052.0469-.0312.0156-.1094.276-.5729.3229-.5625.0208.0052.0469-.0417.0521-.1094.0104-.0625.0469-.1146.0833-.1094.0365.0052.0833.0052.099.0052.0208.0052.0104-.0417-.0156-.099-.0469-.0885-.0417-.099.0156-.0417.0573.0469.0573.0417.0208-.026-.0625-.1094-.0521-.1458.0625-.2188.0729-.0469.0885-.0937.0781-.2187-.0156-.1406-.0156-.1458.0312-.0469.0469.1042.0521.1042.1094.026.0365-.0469.0677-.099.0781-.1198.0052-.0156.0312-.0469.0573-.0625.0208-.0156.0208-.0833-.0052-.151-.0729-.1719-.0469-.2396.0417-.1302.0469.0625.0625.0677.0469.0208-.0156-.0417.026-.1198.0885-.1719.0781-.0625.0937-.0677.0625-.0104-.0312.0417-.0312.0885-.0052.0937.0208.0052.0208.0573-.0104.1198-.0417.0885-.0365.099.026.0469.0625-.0573.0781-.0521.125.0521.0312.0625.0365.125.0208.1458-.0156.0156-.0052.0677.0312.1146.0312.0417.0521.1146.0417.1563-.0104.0573.0104.0573.0937.0052.1094-.0677.1146-.0625.099.0677-.0104.099.0104.1354.0677.1302.0521-.0104.0677.0208.0521.099-.0156.0625-.0052.1042.026.0938.0625-.0208.1875.224.1354.276-.026.0208-.0052.0365.0365.0312.0469-.0104.0885.0313.0937.0885.0104.0521-.0104.099-.0417.1042-.1198.0104-.0781.099.0573.1302.0729.0208.1198.0469.0938.0573-.0208.0156-.0052.0677.0312.1146.0625.0677.0625.0938-.0156.151-.099.0781-.0312.1094.0833.0417.0625-.0365.0729-.0313.0573.0365-.0208.1042.0313.1302.1354.0625.0573-.0312.0573-.0208.0208.0573-.0313.0625-.0313.1094,0,.1198.0313.0052.0521.0365.0469.0677-.0052.0313-.0312.0365-.0521.0156-.0156-.0156-.0417,0-.0521.0365-.0104.0417.026.0729.0781.0729.0573.0052.1198.0469.1406.0937.026.0469.0312.0833.0104.0781-.0156-.0052-.0208.0417-.0052.1042.026.0885.0104.1094-.0781.1094-.0573.0052-.1146.0365-.1198.0729-.0104.0469,0,.0573.0365.026.026-.0312.1146-.0469.1927-.0469.1042.0052.1354.026.1094.0885-.0312.0833.0312.2292.0937.2083s.0937.1198.0312.1458c-.0312.0104-.0208.0677.0156.1302.0417.0625.0781.0885.0833.0625.0052-.026-.0052-.0677-.0313-.0938-.026-.0208-.026-.0625-.0052-.0833.0208-.026.0677,0,.099.0521.0365.0521.0417.1146.0208.1406-.0208.0208-.0208.0573,0,.0833.026.0208.026.0677.0052.1042-.026.0313.0052.099.0625.1458.0573.0417.0781.0781.0417.0729-.0365-.0104-.0729.0104-.0781.0417-.0104.026.0156.0573.0521.0573.151.0156.1927.0573.1719.151-.0208.0729,0,.099.0729.0937.0781-.0104.0833-.0052.0156.0417-.0417.0312-.0937.1146-.1094.1875-.0208.099-.0104.1146.0365.0677.0365-.0365.0573-.0833.0521-.1094-.0104-.0208.0156-.0521.0521-.0677.0469-.0104.0521,0,.0156.0313-.0365.0365-.0156.0781.0521.1094.0833.0469.0937.0833.0573.1771-.0625.1406-.0104.2187.0677.099.0469-.0625.0625-.0469.0937.1094.0365.2292.0365.25-.0208.1927-.026-.0208-.0417-.0052-.0312.0469.0104.0729.0208.0781.1094.0208.1146-.0729.1615.0104.1042.1823-.0208.0625-.0469.1302-.0521.151-.0104.0208-.0312.026-.0521.0052-.0208-.0156-.0469.0104-.0677.0677-.026.0833-.0156.0885.0625.0417.0521-.0312.1094-.1042.1302-.1615.0781-.1979.1198-.151.0573.0625-.0365.1146-.0417.1875-.0156.1615.026-.026.0833-.026.1302.0052.0573.0417.0625.0677.0052.1094-.0521.0365-.0625.0833-.0417.1615.0313.0937.0365.0937.0625-.0156.0521-.1979.1458-.0677.1458.1927,0,.2187.0052.224.0521.0937.0365-.1042.0625-.125.0833-.0677.0104.0417-.0052.125-.0469.1875-.0677.099-.0625.1042.0573.0885.1146-.0156.125-.0052.0833.151-.026.099-.0208.1719.0208.1771.0365.0104.0729-.0104.0781-.0365.0104-.0312.0417.026.0781.1302.0312.1042.1042.224.151.2656.0521.0417.0885.1562.0885.25,0,.125.0156.151.0573.1094.0469-.0469.0573-.0365.0365.0521-.0156.0885,0,.1094.0729.1042.0573-.0104.0781,0,.0521.0208-.026.0156-.0312.0677-.0052.1146.0208.0469.0156.125-.0104.1823-.0365.0625-.0312.0885.0156.0729.0885-.0312.2552-.0052.2187.0365-.0625.0573.0365.3333.125.3542.0469.0104.0833.0469.0729.0833-.0052.0365.0365.0156.0937-.0469.0573-.0625.0937-.0781.0885-.0417-.0104.0417.0729,0,.1823-.0833.1094-.0885.1927-.1875.1771-.224-.0104-.0365.0104-.0417.0573-.0104.0417.0312.1146.0208.1615-.0156.0625-.0521.0677-.0625.0156-.0469-.0937.0312-.0885.0156.0573-.1927.0937-.1302.1615-.1667.2865-.1667.1406.0052.1615-.0104.1719-.1458.0052-.0885.026-.151.0469-.1458s.0885-.0677.1458-.1615c.0625-.0937.1667-.1823.2344-.1927.125-.026.3021-.2083.3333-.349.0104-.0573.0312-.0469.0677.0417q.0521.1146.0729.0104c.0312-.1615.1823-.349.3177-.3854.0625-.0208.1094-.0625.0937-.099-.0104-.0417,0-.0469.0312-.0156.026.026.0573.026.0625-.0104.0104-.0417.0365-.0365.0833.026.0521.0729.0625.0625.0677-.0677.0052-.0833.0208-.1302.0312-.1094.0469.0677.1927-.0417.2187-.1667.0156-.0729.0625-.1198.1042-.1094.0365.0104.0885-.0052.1094-.0417.026-.0365.0521,0,.0677.0833.0365.1615.0469.0052.0208-.1823-.0156-.0677-.0052-.0885.026-.0573.026.0208.0833.0156.125-.0156.0417-.0313.1146-.0365.1562-.0104.0677.0469.0729.0312.0104-.0833-.0729-.1302-.0156-.1719.0625-.0521.026.0417.0521.0052.0781-.0885.026-.0885.0937-.1771.1562-.2031.0625-.026.125-.0729.1354-.1042.0104-.0313.0365-.1198.0625-.1927.026-.0885.0469-.1094.0521-.0573.026.1979.1823.224.224.0417.0208-.0885.0365-.0938.0885-.026.0521.0729.0677.0573.1094-.1146.0312-.151.0521-.1771.0781-.1146.026.0781.0365.0729.0521-.0052.0208-.0833.0365-.0833.0937-.0052.0625.0781.0677.0781.0365-.0365-.0312-.1094-.0156-.1302.0781-.1354.0625-.0052.1042-.0365.0937-.0625-.0104-.0313.0208-.0469.0729-.0365.0677.0156.0781.0052.0417-.0573-.026-.0417-.0365-.1094-.026-.1562.0156-.0625.0312-.0521.0729.0417.0312.0677.0573.0885.0677.0469.0104-.0365.0417-.0469.0885-.0156.0625.0417.0781.026.0833-.0729,0-.0677.0417-.1458.0885-.1719.0677-.0365.0781-.0312.0625.0313-.0104.0417.0052.0833.0312.0885.026.0104.0469-.0417.0469-.1094,0-.0885.0104-.099.0365-.0417.0208.0521.0469.0677.0781.0365.026-.026.026-.0677,0-.0885-.0208-.026-.0208-.0729.0052-.1146.026-.0365.026-.1146-.0052-.1719-.0417-.0938-.0417-.099.0156-.026.0521.0625.099.0729.2187.0417.0833-.0208.1615-.026.1771-.0052.0104.0208.026.0104.0365-.026.0104-.0365-.026-.125-.0781-.1979-.0521-.0677-.0677-.1042-.0312-.0781.0625.0573.2448-.0156.2187-.0833-.0052-.026.0312-.0677.0885-.099.0885-.0417.0937-.0365.0417.0573-.026.0625-.0312.1042,0,.0937s.0469.0052.0417.0365c-.0104.0312-.0573.0417-.1146.0312-.0677-.0156-.099.0052-.0937.0573.0104.0729.0365.0781.1615.0313.0781-.0313.1406-.0833.1354-.1146,0-.0365.099-.1615.2292-.2813.125-.1198.2396-.2708.2552-.3333.0156-.0677.0521-.1146.0781-.1094.0312.0104.0469.0469.0365.0885-.0208.0833.0365.1198.1094.0729.0208-.0104.0104-.0677-.026-.125-.0417-.0625-.0417-.099,0-.1042.0365-.0052.0729-.0469.0885-.0937.0156-.0469.0312.0156.0417.1406.0156.1823.0052.224-.0625.2448-.0417.0156-.0833.0469-.0885.0729-.0208.0729.125.0937.1719.026.0208-.0313.0208.0156,0,.1094-.0208.0885-.0104.224.026.2917.0573.0937.0521.1354-.0052.1823-.0469.0312-.0781.0781-.0833.1042,0,.026-.0156.099-.0365.1667-.026.0885-.0521.1042-.1146.0677-.0729-.0469-.0781-.0417-.0156.0312.0521.0625.0469.1458-.0208.3333-.0469.1406-.1094.3646-.1458.5-.0417.1771-.0781.2396-.1354.224-.0677-.0104-.0677-.0052-.0156.0469.0625.0677.0781.2396.0156.2292-.0521-.0156-.1719.5677-.1458.6979.0156.0729.0052.1094-.0417.1146-.0365.0052-.0729.0365-.0833.0781-.0052.0365-.0312.0729-.0573.0781-.026.0104-.0156.0156.0208.0156.0417,0,.0417.0729-.0052.224-.0365.125-.0469.2292-.0208.2344.0208.0052.0365.0365.0312.0625-.0052.026-.0417.0312-.0781.0052s-.0833-.0208-.1094.0052c-.026.026-.0104.0521.0365.0677.0729.0156.0729.0313.0052.0781-.0833.0677-.1302.4323-.0573.4531.0208.0052.026.0677.0104.1406-.0208.125-.026.125-.0677.026-.0417-.0885-.0573-.0937-.0729-.0365-.0104.0417-.0469.1302-.0781.1875-.0312.0625-.0312.1146,0,.125.0312.0052.0521-.0312.0469-.0885-.0052-.0833,0-.0781.0521.0208.0417.0885.0417.1354-.0156.1771-.0729.0573-.2292.6927-.1927.8021.0104.0365,0,.0417-.0312.0104-.0729-.0729-.0937.0625-.0417.2812.0312.1146.026.1979-.0104.2135-.0312.0104-.1094.2812-.1823.6146-.1354.6354-.1615.7031-.2448.6146-.0312-.0312-.0208-.0052.0208.0521.0417.0625.0469.1198.0156.1302-.0625.0208-.1719.4792-.1146.4896.0208.0052.0573-.0156.0781-.0469.0208-.0365-.0156.1458-.0833.401-.151.5521-.1406.5052-.1927.8125-.026.1354-.0677.2448-.0937.2396-.0208-.0052-.0365.026-.0312.0781.0104.0469-.0208.1302-.0677.1771-.0521.0625-.0573.0885-.0208.0729.099-.0312.1146.099.026.1667-.0469.0365-.1042.1615-.1302.2812-.026.1198-.0833.2552-.1198.2969-.0417.0521-.0469.0833-.0208.0937.026.0052.0417.0937.0312.1979-.0156.099-.0417.1771-.0677.1719-.026-.0052-.0156.0365.0156.0885.0677.1094.0781.1771.0156.1198-.0521-.0573-.1302.3854-.0885.526.026.0833.0156.1354-.0208.1458-.0312.0104-.0521-.0052-.0469-.0417.0104-.0365.0052-.0573-.0156-.0469-.0156.0104-.026.1042-.0156.2083.0052.1719-.0052.1979-.1562.2812-.125.0677-.1719.0677-.1927.0104s-.0521-.0625-.1406-.0104c-.1667.0937-.1875.0781-.1198-.1094.0417-.1094.0156-.099-.0781.0208-.1198.151-.1458.1667-.1562.0781-.0156-.0833-.0312-.0937-.1094-.0521-.0469.0208-.0885.026-.0833.0052s-.026-.0208-.0729.0052c-.0469.0208-.1667.0312-.2656.0156-.0937-.0156-.1927-.0156-.2083,0-.0729.0573-.3958.0104-.4531-.0677-.0417-.0521-.0625-.0573-.0729-.0156-.0104.0521-.3073.0833-.5573.0573-.0729-.0104-.151-.0573-.1771-.1094-.0365-.0833-.0469-.0833-.0677,0-.0156.0729-.0573.0833-.1615.0521-.0781-.026-.1875-.0365-.2396-.026-.0573.0104-.2031-.0052-.3281-.026-.125-.026-.224-.026-.2135-.0052.0052.026-.0104.0417-.0365.0365-.0312-.0104-.0625-.0417-.0729-.0729-.0156-.0469-.0521-.0521-.1094-.0208-.0469.026-.1198.0208-.1615-.0052-.0469-.0312-.0625-.026-.0469.0156.0156.0469-.0052.0521-.0573.0156-.0417-.026-.0833-.026-.0885.0052-.0104.0365-.0417.0208-.0885-.0365s-.0625-.0625-.0469-.0156-.0052.0677-.0521.0573c-.1458-.0365-.2187-.1146-.1719-.1927.026-.0469-.0052-.0312-.0625.0312-.0625.0573-.1042.0781-.0937.0417.0208-.1042-.0885-.0937-.1719.0156-.0365.0625-.0677.0885-.0677.0677.0052-.026-.0417-.026-.1042-.0104-.099.026-.1094.0156-.0677-.0573q.0469-.0781-.0469-.0104c-.0521.0417-.1094.0729-.125.0677-.0208-.0052-.026-.0469-.0156-.099.0156-.0677.0052-.0781-.0365-.0312-.0312.0312-.125.0729-.2031.0937-.1146.0312-.1458.0208-.1875-.0469-.0625-.1094-.1458-.125-.1354-.026.0104.0573-.0208.0729-.0937.0469-.1094-.0312-.125-.0937-.026-.125.0313-.0104.0625-.0417.0677-.0677.0052-.026-.0417-.0208-.1042.0208-.0625.0365-.1094.0937-.1094.125.0052.0417-.0469.0417-.1406.0052-.0781-.0312-.2031-.0417-.276-.0208-.1146.0312-.125.026-.0833-.0365.0365-.0521.0208-.0781-.0521-.0885-.0625-.0104-.1094.0208-.125.0781-.0104.0521-.0417.0781-.0677.0521-.0208-.026-.0312-.0885-.0208-.1458.0208-.0729-.0104-.1042-.1042-.1146-.0677-.0104-.1198,0-.1146.026.0104.0208.0521.0365.099.0313.0521-.0104.0781.0208.0625.0677-.0104.0573-.0417.0677-.0938.0312-.0573-.0417-.0729-.0312-.0573.026.0104.0469,0,.0365-.0312-.0156-.0417-.0833-.0677-.0937-.151-.0573-.0573.0208-.0938.0677-.0781.099.0156.026-.0052.0104-.0469-.0417-.0573-.0729-.0938-.0833-.151-.0417-.0625.0365-.0573.0417.0208.0312.1198-.0156.1042.0729-.026.1562-.125.0781-.1979.0677-.2135-.0417-.0052-.0469-.0312-.0885-.0573-.0937-.0208-.0052-.0365.0208-.0312.0677.0052.0417-.0156.0885-.0521.099-.0417.0156-.0521-.0365-.026-.1354.0417-.1771.0521-.1823.1823-.0677.0729.0625.0885.0573.1094-.0156.0104-.0521.0052-.1354-.0156-.1823-.026-.0729-.0365-.0677-.0573.026-.026.1042-.0365.1042-.1146.0312-.0469-.0469-.0625-.1042-.0417-.1302.026-.026.0052-.026-.0469-.0052-.0521.026-.1094.026-.125,0-.0156-.026-.0312,0-.0365.0573,0,.0521-.0365.1042-.0729.1094-.0469.0052-.0521-.0208-.0208-.0677.0365-.0573.026-.0729-.0365-.0625-.0677.0104-.0781.0313-.0521.1198.0208.0625.0625.1042.0885.0937.026-.0104.0365.0208.026.0625-.0208.1094-.1979.2031-.3229.1771-.099-.026-.099-.0312.0156-.1406.0677-.0625.0885-.1042.0521-.0885-.0417.0104-.1198.0885-.1823.1667-.0625.0885-.099.1094-.0885.0573.026-.125-.0417-.1302-.3125-.0365-.2292.0781-.3021.0573-.3229-.099-.0104-.0573-.026-.0469-.0469.0312-.0313.1198-.1927.1354-.1719.0156.0052-.0365-.0208-.0156-.0625.0417-.0469.0677-.099.0885-.1302.0573-.026-.026-.0885-.0156-.1406.0312-.0521.0417-.0885.0521-.0781.0156.0052-.0312-.026-.0521-.0729-.0469s-.0885.0469-.099.0885-.0417.0521-.0677.026-.026-.0729-.0052-.1094c.0312-.0417-.0052-.0677-.1354-.0833-.0937-.0156-.1979-.0521-.2292-.0833-.0625-.0573-.2396.1094-.2708.25-.0104.0417-.0365.0573-.0625.0312-.0677-.0677-.0052-.2344.1042-.276.0729-.026.0885-.0469.0469-.0781-.0313-.0208-.0469-.0573-.026-.0729.0156-.0208,0-.0417-.0365-.0521-.0417-.0104-.0677.0156-.0625.0573.0052.0365-.0156.099-.0469.1302s-.0625.1146-.0677.1875c-.0104.1146-.0208.1198-.0833.0417-.0365-.0469-.0573-.1146-.0521-.1458.0104-.0312.0312-.0156.0469.0312.0208.0521.0365.0677.0469.0365.0052-.026-.0052-.0885-.0208-.1354-.0312-.0885-.0417-.0833-.1823.1615-.0156.0365-.0521.0469-.0781.0208-.026-.026-.0677-.0156-.0937.026-.026.0365-.0781.0521-.1146.026-.0365-.026-.0729-.0156-.0833.0208-.0052.0417-.0365.0104-.0677-.0625s-.0833-.1406-.1198-.1458c-.0417-.0052-.0469.0052,0,.0312.0312.026.0521.0677.0417.099-.0052.0365-.0417.0104-.0833-.0521-.0625-.1094-.0625-.1146.0573-.1719.0937-.0417.099-.0521.026-.0469-.0573.0052-.1042-.0156-.1198-.0469-.0312-.0885-.1146-.0833-.1354.0156-.0156.0677-.026.0729-.0521.0052-.0156-.0417-.0417-.0573-.0677-.0365-.0208.0208-.026.0781-.0104.1198.026.0677.0469.0729.125.0365.0833-.0469.0938-.0365.0729.0573-.0156.0625-.0573.1042-.1042.0937-.0417-.0104-.0833.0052-.0885.0365-.0052.0312.0208.0469.0573.0312.0417-.0104.0521-.0052.026.0156-.0885.0573-.2396.0052-.2187-.0781.0156-.0417,0-.0937-.026-.1094-.0208-.0156-.0938-.0677-.1563-.1042-.1042-.0677-.1094-.0677-.1042.0469.0052.0729.0052.1875.0052.2604-.0052.0885-.0208.0937-.0417.0052-.0208-.0729-.0521-.1354-.0729-.1406s-.0208-.0729.0052-.1562c.0313-.099.0208-.1406-.026-.1354-.0417.0052-.0833.0573-.099.1094-.0208.0885-.0365.0885-.125.0156-.0677-.0573-.0729-.0469-.0208.0365.0417.0729.0885.1094.1042.0885.0417-.0625.1146.026.0937.1146-.0104.0417-.0365.0573-.0625.0365-.026-.026-.0677-.0156-.0938.026-.0365.0521-.0729.0521-.1615-.0052-.0885-.0625-.1198-.0625-.1302.0052-.0156.0625-.0365.0677-.0781.0104s-.0781-.0625-.1354-.0208c-.0417.0365-.1406.0365-.2344.0052-.0833-.0312-.1458-.0417-.1302-.0208.0365.0573-.1094.1354-.2604.1406-.0937,0-.151-.0312-.1979-.1302-.0625-.1198-.0729-.125-.0937-.0469-.0104.0521-.0417.0833-.0729.0781-.026-.0052-.0417-.0521-.0365-.1042.0156-.0625-.0052-.0573-.0677.026-.0469.0625-.0833.1406-.0833.1667s-.0312.026-.0729-.0052c-.0365-.026-.0885-.0312-.1094-.0104-.0365.0417-.375-.0417-.4167-.099-.0104-.0208-.0938.0052-.1771.0625-.0885.0521-.1875.0781-.2292.0521-.0365-.026-.099-.0104-.1354.0312-.0625.0625-.0729.0625-.0573-.0052.0104-.0417.0521-.1042.099-.1354.0625-.0417.0625-.0521.0052-.0312-.0417.0104-.1094-.0156-.151-.0625q-.0625-.0781-.0208,0c.0573.1042.0417.2187-.0208.1198-.0312-.0469-.0885-.0417-.2031.026-.1615.0937-.2656.0677-.1875-.0469.0208-.0365.0208-.0885-.0052-.1146-.0313-.026-.0521-.026-.0521,0-.0052.1094-.0573.1771-.224.2865-.1719.1146-.1875.1146-.3073.0156-.0677-.0573-.1146-.0781-.1042-.0469.0156.0365-.026.0833-.0885.1146-.1406.0625-.2292.0469-.1354-.0208ZM8.281,18.8244c.0104-.0417-.0052-.0677-.0417-.0573-.0313.0104-.0469.0417-.0365.0729.026.0833.0573.0781.0781-.0156ZM8.4476,18.8088c.0104-.0417-.0052-.0729-.0417-.0573-.0313.0104-.0469.0417-.0365.0729.026.0833.0573.0781.0781-.0156ZM8.1039,18.3504c.0052-.0417-.0052-.0781-.026-.0833-.0521-.0156-.0729.0573-.0365.1146.0365.0625.0417.0573.0625-.0312ZM7.432,17.7879c.0104-.0312-.0104-.0469-.0469-.0365-.0312.0104-.0521-.0052-.0417-.0417.0052-.0365-.0052-.0521-.026-.0417-.0469.0312-.0104.1458.0521.1615.0312.0052.0573-.0104.0625-.0417ZM7.6299,17.4442c-.026-.0469-.0521-.0573-.0573-.0208-.0156.0677.0312.1406.0729.1146.0156-.0104.0104-.0521-.0156-.0937ZM7.5674,17.3296c.0208-.0208.0156-.0469-.0156-.0573-.026-.0052-.0573.0104-.0625.0417-.0104.026-.0052.0521.0104.0573.0104,0,.0417-.0156.0677-.0417ZM13.4528,18.6109c-.0208-.0469-.0208-.0937,0-.1094.026-.0156.0156-.0312-.0208-.0417-.0365-.0052-.0469-.0469-.0208-.0833.0312-.0469.0156-.0625-.0365-.0573-.0677.0104-.0677.0417-.0104.1875.0417.0937.0885.1771.1042.1823.0156,0,.0104-.0312-.0156-.0781ZM10.2081,17.7723c-.0156-.0677-.0469-.1146-.0677-.099-.0208.0104-.0156.0625.0104.1146.0677.1354.099.125.0573-.0156ZM7.656,17.1682c-.0938-.1042-.1406-.1094-.1094-.0052.0104.0313.0625.0677.1094.0781.0677.0156.0677.0052,0-.0729ZM13.6716,18.4911c-.0052-.0417.026-.099.0677-.125.0625-.0469.0573-.0469-.026-.0104-.0573.026-.125.026-.151,0-.0312-.0312-.0365.0052-.0156.099.026.1406.1458.1771.125.0365ZM7.3018,17.0223c.0313-.0417.026-.0625-.0104-.0521-.0313.0104-.0625.0417-.0677.0677-.0156.0729.026.0677.0781-.0156ZM7.5987,16.9598c.0208-.026.0156-.0521-.0104-.0573-.0312-.0104-.0625.0104-.0677.0365-.0104.0312-.0052.0573.0104.0573.0104.0052.0417-.0156.0677-.0365ZM7.5362,16.7984c.0208.0208.0521.0052.0573-.0365.0156-.0625,0-.0677-.099-.026-.0677.0208-.1406.0729-.1615.1094-.0208.0417.0052.0312.0573-.0104.0573-.0469.1198-.0625.1458-.0365ZM14.5883,18.4338c.026.0312.0365.0208.026-.0208-.0313-.0833-.1302-.0573-.1458.0312-.0052.0417,0,.0469.0313.0052.0208-.0365.0625-.0417.0885-.0156ZM9.6091,17.1421c0-.0625-.026-.099-.0625-.0729-.0677.0417-.0521.2292.0208.2031.026-.0104.0417-.0677.0417-.1302ZM15.3747,18.2775c.0104-.0417-.0052-.0781-.0365-.0885-.026-.0052-.0625.0365-.0781.099-.0104.0573-.0417.0833-.0677.0625-.0208-.026-.0521.0052-.0677.0729l-.026.1198.1302-.099c.0677-.0521.1354-.1302.1458-.1667ZM15.9633,18.4182c-.0469-.0521-.1198-.1094-.1615-.1198s-.026.026.0365.0833c.151.1354.2292.1615.125.0365ZM9.406,16.8036c.0208.0833.026.0729.0312-.0469,0-.0885-.0417-.276-.099-.4219-.0521-.1406-.0937-.2656-.0937-.2812.0052-.0104-.026-.0729-.0625-.1406-.0365-.0625-.0937-.1823-.1302-.2604-.0417-.0833-.0833-.125-.1198-.099-.0677.0417.1094.6667.1875.6667.0469.0052.1667.3854.1615.526,0,.0417-.0052.1042-.0052.1354s.026,0,.0573-.0677q.0521-.1198.0729-.0104ZM9.5831,16.9546c.0052-.0104-.0156-.0417-.0365-.0677-.026-.0208-.0521-.0156-.0573.0104-.0104.0312.0104.0625.0365.0677.0312.0052.0521,0,.0573-.0104ZM16.2549,18.3765c-.0312-.0833-.0469-.1823-.0365-.2292.0208-.0781.0104-.0781-.0781-.0208-.0573.0365-.1198.0469-.1458.0208-.0573-.0573-.0781.0885-.026.1771.0365.0521.0729.0625.1302.0312.0573-.026.0833-.0156.0937.0521.0052.0521.0365.099.0625.1042.0312.0052.0312-.0573,0-.1354ZM10.9008,17.1421c.0104-.0469-.0104-.0729-.0417-.0625-.0312.0156-.0521.0469-.0417.0781.026.0833.0625.0729.0833-.0156ZM10.2028,16.7098c-.0156-.125-.0937-.1146-.0937.0104.0052.0573.026.099.0573.0885.026-.0052.0417-.0521.0365-.099ZM10.8174,16.8661c-.0156-.0417-.0625-.1719-.1042-.2969-.0417-.1198-.099-.224-.125-.2292-.0312-.0104-.0312-.0312-.0052-.0573.0208-.026-.0052-.1406-.0573-.2656-.0573-.1198-.099-.2552-.0937-.2969,0-.0469-.0312-.1458-.0781-.224-.0521-.0937-.0677-.1719-.0312-.2083.0312-.0312.0312-.0469.0052-.0312-.026.0156-.0729-.0677-.1042-.1927-.026-.1198-.0833-.224-.125-.2344-.1042-.026-.1146.0469-.0156.1979.0417.0677.0521.1198.0208.1146-.0312-.0104-.026.0312.0104.0833.0312.0573.0521.1354.0417.1771-.0052.0365.0052.0781.0312.0833.0417.0104.0833.1042.276.6563.0365.1146.0625.2604.0469.3177-.0156.0833-.0052.0885.0469.0365.0521-.0469.0677-.0469.0573,0-.0208.0833.125.4219.1823.4323.026.0104.0365-.0208.0208-.0625ZM17.4893,18.2671c-.0208-.0417-.0625-.0729-.0938-.0625-.0729.026-.0365.1042.0573.125.0573.0156.0677,0,.0365-.0625ZM10.0987,16.4546c-.026-.026-.0521-.1042-.0573-.1719-.0104-.1615-.099-.1823-.1302-.0365-.0365.151.0781.3594.1667.3021.0521-.0312.0573-.0573.0208-.0938ZM6.8799,15.3192c-.0104-.0313-.0417-.0469-.0729-.0365-.0313.0104-.0469.0469-.0365.0729.0104.0312.0417.0469.0729.0365.0313-.0104.0469-.0417.0365-.0729ZM9.9112,15.8504c-.0312-.0521-.0312-.1094-.0104-.125.026-.0104.0208-.0313-.0052-.0365-.026-.0052-.0833-.1146-.1302-.2448-.0417-.1302-.0937-.2396-.1094-.2448-.0313-.0052-.0573-.2083-.0365-.2396.0052-.0052-.0469-.1406-.1094-.3021-.1198-.2969-.2187-.3646-.25-.1771-.0104.0625-.0469.1198-.0833.1302-.0417.0156-.0365.0313.0156.0469.0469.0104.099.099.1146.1927.026.151.1146.3437.3073.6719.0312.0521.0521.1146.0469.1406-.0052.0208.026.0885.0677.1458.0417.0573.0833.1562.0885.2187l.0208.1094.0625-.0937c.0417-.0573.0417-.1302.0104-.1927ZM12.8174,16.7098c.026-.0417.0208-.0625-.0104-.0521s-.0625.0417-.0677.0677c-.0208.0729.0208.0677.0781-.0156ZM13.4841,16.8661c-.0052-.0469-.0156-.0833-.026-.0833-.0052-.0052-.0365.026-.0625.0625-.026.0469-.0156.0781.026.0885.0469.0104.0729-.0156.0625-.0677ZM20.2862,18.4338c.0052-.0104-.0365-.0417-.0885-.0677-.0573-.026-.0937-.026-.0833,0,.0208.0521.1667.1094.1719.0677ZM14.2081,16.9546c.0052-.0312,0-.0573-.0104-.0573-.0104-.0052-.0417.0104-.0677.0365-.0208.026-.0156.0521.0104.0573.0312.0052.0625-.0104.0677-.0365ZM11.1143,16.2202c.0104-.0521-.2083-.8802-.2604-.9844-.0469-.099-.0469-.1094.0052-.0573.0625.0573.0625.0469.0156-.0573-.026-.0625-.0833-.1667-.125-.2344-.0677-.1094-.0729-.1094-.0781.0104-.0156.1875.0833.5521.1406.5365.026-.0104.0365.0312.026.0885-.0156.0573-.0052.1094.026.1198.026.0052.026.0417,0,.0833-.026.0417-.0052.1406.0573.2344.0573.0937.099.1875.0937.2135-.0052.0208.0104.0469.0417.0573.026.0052.0521,0,.0573-.0104ZM13.5674,16.5744c-.0052-.0365-.0208-.0104-.0365.0573-.0208.0729-.0156.1042.0104.0729.0208-.0312.0365-.0937.026-.1302ZM6.9476,15.1577c.0052-.0104-.026-.0625-.0677-.1146-.0677-.0833-.0677-.0781-.026.0156.0521.1042.0833.1406.0938.099ZM12.0362,16.2359c.0052-.0313,0-.0521-.0156-.0573-.0104-.0052-.0417.0156-.0625.0365-.026.026-.0208.0521.0104.0573.026.0104.0573-.0104.0677-.0365ZM8.9216,15.4598c.0521-.0521,0-.3229-.0677-.3385-.0521-.0104-.0938.151-.0781.2813.0156.1042.0781.1302.1458.0573ZM8.7341,15.1265c-.0104-.0469-.0365-.0937-.0677-.099-.0417-.0104-.0469.026-.0208.1094.0365.1302.1042.125.0885-.0104ZM14.6039,16.5744c-.0156-.026.0052-.0677.0417-.099.0469-.0313.0573-.0625.026-.0938-.026-.026-.0521-.026-.0625,0-.0052.0312-.0312.0885-.0573.1302-.0312.0417-.026.0781.0156.0885.0312.0052.0521-.0052.0365-.026ZM18.307,17.3504c.0052-.0313.0208-.0677.0312-.0833.0104-.0156-.0156-.0469-.0625-.0625-.0677-.026-.0937.0208-.0833.1615,0,.0417.1042.026.1146-.0156ZM12.3331,15.8713c.0104-.0312-.0104-.0573-.0365-.0677-.0312-.0052-.0573.0156-.0625.0417-.0104.0312.0104.0573.0365.0625.0312.0104.0573-.0104.0625-.0365ZM8.7914,14.9442c-.0313-.1198-.1458-.2292-.1979-.1979-.0417.026.1146.2917.1771.3073.0365.0052.0417-.0365.0208-.1094ZM14.0778,16.09c.0104-.0625.0104-.1667.0052-.2292-.0156-.0781-.0313-.0521-.0625.1094-.026.1198-.026.224-.0052.2292.0208.0052.0469-.0417.0625-.1094ZM12.8122,15.7619c-.0052-.0625-.026-.1146-.0521-.1198-.026-.0104-.0312-.0313-.0104-.0521.026-.026.026-.0625,0-.0833-.0208-.0208-.0417,0-.0417.0521-.0052.0521-.0104.1354-.0208.1875-.0104.0521.0156.099.0521.1094.0521.0104.0729-.026.0729-.0937ZM21.8695,17.8713c.0104-.0417-.0052-.0677-.0312-.0573-.0312.0052-.0417.0417-.0312.0677.026.0781.0417.0781.0625-.0104ZM12.3174,15.564c.026-.0365.026-.0729-.0052-.0781-.026-.0104-.0573.0208-.0677.0625s-.0052.0833.0052.0833.0417-.026.0677-.0677ZM13.4841,15.689c-.0156-.0469-.0417-.0417-.0833.0208-.0729.1198-.0417.2135.0417.1198.0365-.0417.0573-.1042.0417-.1406ZM18.3799,16.7932c.026-.1042.0156-.1771-.0104-.1667-.0312.0104-.0625.0833-.0729.1667-.0156.1771-.0156.1719.0156.1771.0156.0052.0469-.0781.0677-.1771ZM22.9216,17.8661c.0365-.1667-.0521-.1823-.0937-.0208-.0208.0833-.0156.1458.0156.1354s.0677-.0625.0781-.1146ZM8.5674,14.5588c-.026-.0417-.0677-.0625-.0937-.0469-.026.0156-.0208.0573.0156.0937.0833.0833.1354.0469.0781-.0469ZM22.0101,17.564c.0208-.0781.0156-.125-.0104-.1094-.0625.0365-.1198.276-.0625.2604.0208-.0104.0573-.0781.0729-.151ZM11.9112,15.2619c.0156-.1094-.0937-.2083-.1198-.1042-.0104.0365.0625.2083.0937.224,0,.0052.0156-.0521.026-.1198ZM12.281,15.2619c.0208-.0208.0208-.0625-.0052-.0885-.026-.026-.0312-.0729-.0104-.1042.0156-.026.0052-.0937-.0312-.1458-.0521-.0833-.0625-.0833-.0469,0,.0052.0625-.0104.0938-.0521.0833s-.0469.0052,0,.0469c.0313.0312.0521.0729.0469.0937-.0521.1302.0104.2031.099.1146ZM17.8799,16.4129c.0312-.0677.0417-.1562.026-.1979-.0156-.0417-.0313-.0573-.0417-.026-.0104.026-.0469.125-.0781.2135-.0677.1875.0156.1979.0937.0104ZM21.1508,17.2932c.0052-.026-.0156-.0573-.0417-.0625-.026-.0052-.0573.0104-.0625.0417-.0052.026.0104.0573.0365.0625.0312.0052.0573-.0104.0677-.0417ZM7.3174,13.9442c-.0052-.0417-.026-.0156-.0417.0573-.0156.0677-.0104.1042.0156.0677.0208-.0313.0313-.0885.026-.125ZM10.1508,14.715c.0052-.026-.0104-.0573-.0417-.0625-.0312-.0104-.0469.0104-.0365.0469.0104.0312.0312.0573.0469.0625.0104,0,.026-.0208.0312-.0469ZM11.8487,14.8452c-.0052-.0521-.0208-.026-.0417.0573-.0208.0885-.0208.1302,0,.099.026-.0312.0417-.099.0417-.1562ZM23.0726,17.4494c.0052-.0208-.0156-.0417-.0417-.0521-.0312-.0052-.0677.0417-.0781.1094-.0208.0938-.0156.1042.0417.0469.0365-.0365.0729-.0833.0781-.1042ZM6.6299,13.5484c.0313-.0417.026-.0625-.0052-.0521-.0365.0104-.0677.0417-.0729.0677-.0156.0781.026.0677.0781-.0156ZM21.8018,16.7984c.0521-.1979-.0417-.0938-.1042.1146-.0469.1458-.0417.1719.0052.099.0365-.0469.0833-.1458.099-.2135ZM12.2445,14.5484c0-.1458-.026-.2135-.0781-.2031-.0677.0052-.0729.0417-.0469.2083.0208.1094.0365.2083.0312.224,0,.0104.0208.0104.0469.0052.0312-.0104.0521-.1094.0469-.2344ZM14.0518,15.0379c.026-.1302-.0625-.151-.1146-.0312-.0417.0885-.0312.1146.0208.1094.0417-.0052.0833-.0417.0937-.0781ZM24.0674,17.34c-.0156-.0208-.0469,0-.0781.0469-.0469.0677-.0417.0729.0208.0365.0417-.026.0677-.0677.0573-.0833ZM6.9997,13.2567c.0104-.026-.0156-.0208-.0521.0156s-.0781.099-.0833.1458c-.0156.0781.1094-.0625.1354-.1615ZM24.182,17.2723c-.0052-.0417-.0208-.0365-.0365.026-.0156.0521-.0104.0885.0104.0729.0208-.0104.0312-.0573.026-.099ZM18.5883,15.7202c-.0052-.151-.0625-.1823-.1615-.099-.0677.0521-.0729.0625-.0156.0417.0573-.0156.0573.0208.0104.1667l-.0677.1875.1198-.099c.0625-.0521.1146-.1458.1146-.1979ZM22.307,16.6786c-.0052-.0417-.0208-.0365-.0365.026-.0156.0521-.0104.0885.0104.0729.0208-.0104.0312-.0573.026-.099ZM7.1872,13.1629c.0156-.0573.0156-.1042.0052-.1042-.0104-.0052-.0417.0365-.0677.0885-.0313.0573-.0313.1042-.0052.1094.026.0052.0573-.0365.0677-.0938ZM21.9164,16.5484c.0208-.0833-.0625-.1302-.1146-.0573-.026.0469-.0156.0781.0312.0885.0417.0104.0781-.0052.0833-.0312ZM7.031,13.0171c.0052-.0677.0312-.099.0833-.0885.0417.0104.0677-.0104.0573-.0417-.0156-.0469-.0469-.0521-.1042-.0208-.0417.0208-.0885.0156-.0937-.0052-.0052-.026-.0104-.0156-.0104.026,0,.0365-.0052.1042-.0156.1458-.0104.0417.0052.0781.0312.0833.026.0052.0521-.0365.0521-.099ZM12.2758,14.1994c.026-.0573.0104-.0885-.0365-.0833-.0417.0052-.0938.0469-.1146.099-.026.0521-.0104.0833.0365.0781.0417-.0052.0937-.0469.1146-.0937ZM6.6924,12.8557c.0156-.0365.0052-.0625-.026-.0521-.026.0104-.0625.0573-.0729.099-.0208.099.0573.0625.099-.0469ZM10.3591,13.6057c-.0417-.0625-.0469-.0573-.0365.0208.0104.0573.0312.0937.0521.0781.0156-.0104.0104-.0573-.0156-.099ZM11.281,13.7515c-.0104-.0469-.0417-.0937-.0833-.099-.0521-.0052-.0521,0-.0052.0313.0312.0208.0469.0781.0365.125-.0104.0417,0,.0677.0208.0573.026-.0156.0365-.0677.0313-.1146ZM12.2341,14.0536c.026-.026.0208-.0521-.0052-.0573-.0312-.0104-.0729.0052-.0938.0313-.026.026-.0208.0469.0052.0573.026.0052.0729-.0104.0937-.0312ZM6.6872,12.4442c.0208-.0937.0104-.1354-.0208-.099-.0313.0312-.0521.0729-.0417.099.0052.0208-.0156.0417-.0521.0469-.0365.0052-.0573.0365-.0417.0781.0417.1146.125.0469.1562-.125ZM7.2028,12.6213c.0104-.026-.0104-.0573-.0417-.0625-.0313-.0052-.0469.0156-.0365.0469.0156.0312.0313.0625.0469.0625.0104.0052.026-.0156.0313-.0469ZM6.5883,12.1421c-.0052-.0365-.026-.0104-.0417.0573-.0156.0729-.0104.1042.0104.0729.026-.0312.0365-.0937.0312-.1302ZM12.5049,13.5015c-.0417-.0625-.0469-.0573-.0365.0208.0104.0573.0313.0885.0521.0781.0208-.0104.0104-.0573-.0156-.099ZM20.0935,15.1942c-.0104-.0469-.026-.0365-.0417.0208-.0156.0521-.0104.0885.0104.0729.0208-.0104.0365-.0573.0312-.0937ZM11.7601,12.9338c.026-.125.0313-.2448.0052-.2708-.026-.0208-.0521-.0052-.0625.0469-.0208.0729-.0312.0729-.0885-.0052-.0677-.0833-.0677-.0781-.026.0938.026.1042.0365.2344.026.2917-.0156.0625,0,.1042.0312.0938.0312-.0156.0833-.125.1146-.25ZM12.6039,13.2879c.0104-.0469-.0104-.0729-.0417-.0625-.0312.0156-.0677.0573-.0781.099s.0104.0677.0417.0573.0677-.0521.0781-.0938ZM6.5987,11.939c.0052-.026,0-.0521-.0104-.0573-.0104,0-.0417.0156-.0677.0417-.0208.026-.0156.0469.0104.0573.0312.0052.0625-.0104.0677-.0417ZM18.3122,13.7567c-.0156-.0625-.0521-.1198-.0781-.125-.026-.0052-.0417-.0521-.0312-.099.0104-.0521-.0365-.1927-.1042-.3177-.0677-.125-.1458-.2865-.1719-.3646-.0312-.0729-.099-.2135-.1562-.3073-.099-.1667-.1302-.2604-.2344-.6458-.0208-.0781-.0781-.2083-.1302-.2865-.0469-.0781-.0781-.1771-.0677-.224.0104-.0469-.0104-.0729-.0417-.0625s-.0521-.0156-.0417-.0573-.0104-.1094-.0469-.1563c-.0313-.0417-.0521-.125-.0417-.1771.0156-.0521-.0052-.1042-.0417-.1146-.099-.0208-.2083-.2656-.151-.3437.0365-.0573.0208-.0729-.0677-.0677-.0833,0-.099-.0104-.0469-.0521.0521-.0365.0365-.1042-.0469-.25-.0625-.1146-.1042-.2344-.099-.276.0208-.0781-.0781-.224-.1302-.1927-.0208.0156-.026-.0052-.0156-.0417.0417-.1562.0365-.2552-.0104-.2656-.026-.0052-.0573.026-.0677.0677-.0313.1302.0625.4271.125.4062.0312-.0104.0312.0156.0052.0573-.0312.0469-.0104.1302.0625.2292s.0885.1562.0417.1615c-.0521.0052-.0573.0312-.0208.1354.026.0729.0781.125.1198.1198.0365-.0052.0521.0052.0312.0312-.0208.0208,0,.1354.0469.2552.0469.125.0677.1979.0365.1719-.026-.026-.0208.0208.0104.1094.0312.0833.0781.1562.1042.1667.026.0052.0365.0417.026.0781-.0052.0365.026.125.0677.1875.0469.0677.0677.1458.0417.1823-.0208.0365-.0104.0677.0312.0781.0677.0156.125.1771.0885.2552-.0104.0208.0104.0312.0469.0208.0365-.0156.0625.026.0677.0885,0,.0677.0208.1094.0417.1042.026-.0104.0521.0781.0677.1875.0156.1094.0573.2604.0937.3281.0417.0677.0573.1354.0365.1562-.0156.0208.0104.0729.0573.1146.0521.0469.099.0677.1042.0417.0052-.0208.0833.1406.1719.3542.0885.2135.1823.401.2031.4167.0208.0156.0156.0469-.0104.0781-.026.026-.0052.0313.0521,0,.0781-.0365.099-.0729.0729-.1562ZM12.0622,12.439c-.0365-.0521-.1719-.0937-.1562-.0469.0104.026.0521.0521.0937.0625.0469.0104.0729.0052.0625-.0156ZM16.3435,13.1004c.0313-.151-.0365-.3646-.1042-.3229-.0677.0417-.0729.1198-.0052.099.0365-.0156.0365.0625.0104.1927-.0312.125-.026.2031.0104.1927.0312-.0156.0729-.0833.0885-.1615ZM15.5466,12.9494c-.0104-.0417-.0208-.0365-.0417.026-.0104.0521-.0052.0885.0156.0729.0208-.0104.0312-.0573.026-.099ZM13.2497,12.2202c-.0104-.0156-.0833.0156-.1615.0677l-.1406.0938.1562-.0677c.0885-.0365.1562-.0781.1458-.0937ZM12.4216,11.7046c-.0156-.0677.0104-.1406.0781-.224.0573-.0677.0833-.125.0573-.1302-.0365-.0104-.1354.0937-.1719.1771-.0052.0156-.0365.0521-.0677.0833-.0365.0313-.0417.0885-.0208.1354.0208.0417.0208.099-.0052.1146-.0313.0208-.0052.0156.0521-.0104.0781-.0313.099-.0729.0781-.1458ZM18.6195,13.2046c.0052-.1406-.0469-.1875-.125-.1094-.026.0208-.0156.0469.0156.0573.0313.0052.0365.0313.0156.0521-.0208.0208-.0104.0625.0208.0833.0312.0208.0625.0417.0625.0469.0052,0,.0052-.0573.0104-.1302ZM13.4008,11.6577c.0156-.0781.0469-.1667.0677-.1875.0208-.0208.0208-.1406,0-.2656l-.0469-.2292-.0365.1927c-.0208.1042-.0208.1823.0104.1719.026-.0104.0052.0885-.0417.2135-.0625.151-.0729.2344-.0365.2448.026.0052.0677-.0573.0833-.1406ZM15.1872,12.2046c.0052-.0104-.026-.0417-.0677-.0677-.0417-.0312-.0625-.026-.0521.0104.0208.0521.1146.099.1198.0573ZM18.4737,12.9286c.026-.0208.0208-.0573,0-.0833-.026-.026-.0573-.0104-.0677.0365-.0208.0885.0104.1094.0677.0469ZM19.5883,13.1004c-.0312-.0521-.0729-.099-.0885-.099-.0156-.0052-.0208.0312-.0156.0729.0104.0469.0469.0937.0885.1042.0677.0156.0677.0052.0156-.0781ZM23.6924,13.9859c-.0104-.0208-.0469.0052-.0781.0521-.0469.0677-.0417.0729.0208.0313.0469-.026.0729-.0625.0573-.0833ZM16.0883,12.2359c-.0104-.0469-.0052-.1198,0-.1615.026-.1094-.0625-.1094-.1198,0-.0521.0937-.0052.2187.0833.2396.026.0052.0417-.026.0365-.0781ZM18.3122,12.5171c-.0312-.0573-.0365-.1354-.0156-.1771.0365-.0573.0312-.0625-.026-.0104-.0729.0677-.0729.2083,0,.224.026.0052.0365.0729.0208.1562-.0208.125-.0208.1302.026.026.026-.0625.026-.1615-.0052-.2187ZM12.6664,11.2879c-.0156-.0208.0313-.125.1042-.2344.151-.2344.2812-.651.1875-.5937-.0365.026-.0833.1302-.1042.2344-.026.1094-.0469.1667-.0521.125-.0156-.125-.099-.0885-.1719.0781-.0833.1927-.0833.3958.0052.4167.0313.0052.0417-.0052.0313-.026ZM16.0674,11.9025c.0104-.0052-.026-.0417-.0781-.0885-.0833-.0729-.0938-.0677-.125.0573-.026.1198-.0208.1302.0781.0885.0573-.026.1146-.0521.125-.0573ZM18.1299,12.1942c-.0312-.0313-.0312-.0781-.0052-.1042s.026-.0573-.0052-.0625-.0312-.0469-.0052-.0937c.0469-.0781.0417-.0781-.026-.0104-.0885.0833-.0573.375.0417.3438.0312-.0104.0312-.0417,0-.0729ZM16.057,11.7411c.0052-.0156-.0156-.0677-.0469-.1198-.0469-.0729-.0625-.0781-.1042-.0208-.0208.0365-.0156.0833.0156.1042.0781.0573.1302.0729.1354.0365ZM13.5622,10.9129c-.0052-.0365-.0208-.0104-.0417.0625-.0156.0677-.0104.099.0156.0677.0208-.0312.0312-.0885.026-.1302ZM15.8799,11.2932c-.0104-.0885-.0365-.1823-.0573-.2031-.026-.0208-.026-.0625,0-.0833.0208-.0208.0156-.0469-.0156-.0521-.0312-.0104-.0573-.0052-.0573.0104-.0052.0104-.0313.0573-.0625.099-.0417.0625-.0365.0781.0208.0573.0625-.0208.0677-.0052.026.0521-.0312.0469-.0312.0729,0,.0677.0729-.026.0885.1302.0208.2292-.0469.0729-.0417.0781.0417.0365s.099-.0833.0833-.2135ZM14.6195,10.8661c-.026-.0521-.0365-.1562-.0312-.2344.0104-.0781.0208-.1823.026-.2344.0052-.0469-.0156-.0781-.0469-.0677-.0312.0104-.0365-.0156-.0052-.0625.0365-.0469.0312-.0729,0-.0625-.0781.026-.099.125-.0677.3229.0156.0885.0104.1979-.0052.2448-.0156.0521,0,.099.0469.1042.0469.0156.0573.0573.0208.1302-.0469.099-.0417.1042.0312.0312.0625-.0625.0677-.099.0312-.1719ZM17.9893,11.8661c0-.0104-.0052-.0885-.0156-.1667-.0208-.1406-.1667-.2344-.1927-.125-.0052.0312.026.0521.0729.0469.0625-.0104.0781.026.0573.1146-.0208.0729-.0104.1354.0208.1406.026.0052.0521,0,.0573-.0104ZM12.5049,10.5223c.0208-.026.0156-.0521-.0156-.0573-.026-.0052-.0573.0104-.0625.0365-.0104.0312-.0052.0573.0104.0573.0104.0052.0417-.0156.0677-.0365ZM12.8695,10.3765c-.0052-.0417-.0208-.0156-.0417.0573-.0156.0729-.0104.1042.0156.0677.0208-.0312.0365-.0885.026-.125ZM13.6247,10.5223c-.0365-.1146-.0625-.0885-.0417.0573.0104.0469.026.0781.0417.0677.0208-.0052.0156-.0625,0-.125ZM14.9528,10.7879c.0104-.0417-.0052-.0677-.0312-.0573-.0312.0052-.0417.0417-.0312.0677.026.0781.0417.0781.0625-.0104ZM13.2289,10.3817c.0521-.0312.026-.1771-.0312-.1927-.026-.0052-.0573.0365-.0677.0937-.026.1042.0208.151.099.099ZM15.6716,10.9286c.0208-.026.0208-.0625-.0052-.0885s-.0521-.0104-.0625.0365c-.0208.0885.0052.1094.0677.0521ZM17.8695,11.4286c.0104-.0312.0052-.0573-.0104-.0573-.0104-.0052-.0417.0156-.0677.0365-.0208.026-.0156.0521.0156.0573.026.0104.0573-.0104.0625-.0365ZM17.6716,11.2619c-.0052-.0417-.0208-.0365-.0365.026-.0156.0521-.0104.0885.0104.0729.0208-.0104.0365-.0573.026-.099ZM12.7185,9.939c.0104-.0417-.0104-.0677-.0417-.0573-.0365.0104-.0521.0469-.0417.0729.026.0833.0625.0781.0833-.0156ZM12.8799,9.9911c.0312.026.0417.0208.026-.0208-.026-.0833-.1302-.0625-.1458.0312-.0052.0417.0052.0417.0313,0,.026-.0312.0625-.0365.0885-.0104ZM17.7445,11.0379c.0156-.0677,0-.0781-.0729-.0365-.0521.026-.0937.0521-.099.0625,0,.0156.0312.0312.0729.0417s.0885-.0208.099-.0677ZM25.057,12.5327c.026-.0833.026-.1667.0052-.1875s-.0365.0104-.0365.0729c.0052.0677-.0208.1042-.0573.0937-.0521-.0104-.0573.0052-.0208.0781.0625.125.0677.1198.1094-.0573ZM17.5206,10.7879c-.0469-.1823-.0677-.2083-.0729-.0833-.0052.0885.0417.1979.0937.2135.0104,0,0-.0573-.0208-.1302ZM13.0831,9.7307c.0208-.0365.0052-.0573-.0365-.0521-.0417,0-.0885.0312-.1094.0677-.026.0365-.0104.0625.0312.0573.0417-.0052.0938-.0365.1146-.0729ZM14.6403,10.0067c.0208-.0729.0104-.1354-.0312-.1458-.0677-.0156-.0937.0729-.0521.1927.0365.1042.0417.099.0833-.0469ZM13.682,9.5379c.0052-.026,0-.0521-.0156-.0573-.0104,0-.0417.0156-.0625.0417-.026.026-.0208.0521.0104.0573.0312.0052.0573-.0104.0677-.0417ZM17.3956,10.3817c.0052-.0365.0521-.1302.1042-.2031s.0885-.1458.0781-.1615c-.0104-.0156-.0469.0156-.0781.0677-.0313.0573-.0833.0937-.1094.0885-.0312-.0052-.0365-.0417-.0104-.0833.026-.0365.0312-.0729.0052-.0781-.0833-.0208-.1354.1198-.0625.1667.0365.026.0469.0677.026.0937-.026.026-.0365.0729-.026.1042.0312.0833.0677.0833.0729.0052ZM19.7289,10.9286c.0052-.026-.0156-.0573-.0469-.0625-.026-.0104-.0417.0104-.0312.0469.0104.0313.0312.0573.0417.0625.0104,0,.026-.0208.0365-.0469ZM25.1768,12.1525c.026-.0365.0312-.0729.0052-.0781-.026-.0052-.0677.0208-.0937.0573-.026.0417-.026.0781,0,.0833.0208.0052.0625-.0208.0885-.0625ZM13.4737,9.0432c.0052-.0625-.0677-.0677-.1042-.0052-.0208.0313-.0052.0521.0312.0469.0365,0,.0677-.0208.0729-.0417ZM17.3799,9.8452c-.0052-.1354-.0521-.151-.1719-.0573-.0625.0521-.0677.0625-.0208.0469.0417-.0104.0677,0,.0625.0312s.0208.0625.0625.0729c.0469.0104.0677-.0208.0677-.0937ZM25.5153,11.6682c-.0312-.0521-.1406.0208-.1198.0833.0104.0365.0365.0365.0781,0,.0312-.0312.0521-.0677.0417-.0833ZM17.1872,9.6369c.0521-.0833.0677-.1458.0417-.151-.0312-.0104-.0573.0208-.0677.0625-.0104.0469-.0417.0729-.0677.0677-.0312-.0052-.0469.026-.0417.0729.0208.1146.0313.1094.1354-.0521ZM18.9372,10.0952c.0104-.0312-.0104-.0573-.0417-.0625-.0312-.0104-.0469.0104-.0365.0469.0156.0313.0312.0573.0469.0625.0104,0,.026-.0208.0312-.0469ZM25.4997,11.465c.0312-.0417.026-.0677-.0052-.0573-.0365.0104-.0677.0417-.0729.0677-.0156.0781.026.0677.0781-.0104ZM13.781,8.6317c.0052-.026-.0156-.0417-.0469-.0312-.0365.0104-.0677.0417-.0729.0729-.0052.026.0156.0417.0469.0312.0313-.0104.0625-.0469.0729-.0729ZM16.5153,9.215c.0677-.0677.0677-.0833-.0104-.0885-.0521,0-.1094-.0052-.1302-.0052-.0469-.0052-.026.1615.0208.1719.0208.0052.0729-.0312.1198-.0781ZM13.6456,8.4286c-.0052-.0365-.026-.0104-.0417.0625-.0156.0677-.0104.099.0104.0677.0208-.0313.0365-.0885.0312-.1302ZM17.1143,9.3348c.026-.0365.0052-.1042-.0365-.1458-.0781-.0781-.0833-.0729-.0573.0573.0365.1667.0417.1719.0938.0885ZM25.7706,11.1473c.0417-.0625.0729-.1719.0625-.2396-.0156-.1198-.0208-.1198-.0885.0208-.0365.0781-.0937.1771-.1198.224-.0729.1354.0573.125.1458-.0052ZM16.8799,9.1004c.0104-.0417-.0052-.0677-.0417-.0573-.0312.0104-.0521.0417-.0417.0729.0312.0833.0625.0781.0833-.0156ZM14.0987,8.3609c.0312-.0937.026-.099-.0521-.0313-.0781.0677-.0937.0625-.1927-.0833-.0573-.0833-.1198-.1406-.1406-.1302-.0781.0521-.0573.1146.0469.1354.0573.0156.1094.0625.1146.1042.0208.125.1875.125.224.0052ZM16.3851,8.9598c-.026-.0417-.026-.1042,0-.1406.026-.0417.0052-.0729-.0677-.0885-.0781-.0156-.1042,0-.0885.0469.0469.1354.1042.224.151.2396.0312.0052.0312-.0208.0052-.0573ZM17.1508,8.7671c-.0312-.0469-.1458.026-.1615.1042-.0156.0729-.0052.0729.0781,0,.0521-.0469.0885-.0937.0833-.1042ZM13.9164,8.0379c.0104-.0417-.0104-.0677-.0417-.0573s-.0521.0469-.0417.0729c.026.0833.0625.0781.0833-.0156ZM16.7028,8.6577c-.026-.0625-.0677-.1042-.099-.0937s-.0208.0625.026.1094c.1042.125.1198.1198.0729-.0156ZM18.5466,9.0484c-.0104-.0469-.026-.0781-.0469-.0677-.0156.0104-.0156.0469-.0052.0833.0312.0937.0625.0833.0521-.0156ZM25.9216,10.7202c.0104-.0312.0052-.0573-.0104-.0573-.0104-.0052-.0417.0156-.0677.0365-.0208.026-.0156.0521.0156.0573.026.0104.0573-.0104.0625-.0365ZM16.9581,8.5327c.0052-.026-.026-.0417-.0729-.0312-.0469.0052-.0781-.0104-.0729-.0417.0052-.026-.0104-.0521-.0417-.0573-.026-.0104-.0417.0208-.0365.0677.0104.0833.2083.1406.224.0625ZM18.4737,8.814c.0052-.0417-.0104-.0729-.0417-.0573-.0365.0104-.0521.0417-.0417.0729.026.0833.0625.0781.0833-.0156ZM14.2133,7.814c.026-.026.0052-.0417-.0469-.0312-.0937.0104-.1198.0469-.0469.0625.026.0052.0677-.0104.0937-.0312ZM26.031,10.4807c.0365-.0469.099-.1562.1354-.2396.0573-.1302.0521-.151-.026-.1406-.0729.0104-.0833-.0052-.0365-.0521.0469-.0521.0417-.0521-.026-.0156-.0677.0417-.0781.0729-.0469.1667.0208.0625.0156.1198-.0156.1302-.0469.0156-.1094.224-.0729.2292.0052.0052.0469-.0313.0885-.0781ZM16.682,8.3036c.0104-.0417-.0052-.099-.0312-.125-.0312-.0312-.0417-.026-.026.0156.0104.0417-.0104.0625-.0573.0521-.0833-.0208-.0885-.1562-.0052-.1823.026-.0052.0104-.0104-.0312-.0104-.0469,0-.0573-.0365-.026-.1198.026-.0677.026-.1302-.0052-.1354-.026-.0104-.0521,0-.0573.0208-.0052.0208-.0365.0625-.0625.0937-.0365.0313-.0104.1302.0625.2448.1302.2083.2135.2604.2396.1458ZM18.3435,8.59c-.0052-.0469-.0208-.0365-.0365.0208-.0156.0573-.0104.0885.0104.0729.0208-.0104.0312-.0573.026-.0938ZM16.8018,8.1786c-.0052-.0417-.0208-.0365-.0365.026-.0156.0521-.0104.0885.0104.0729.0208-.0104.0365-.0573.026-.099ZM14.3539,7.2359c-.0938-.0937-.1302-.0781-.0885.0417.026.0833.0573.099.0937.0625.026-.026.026-.0729-.0052-.1042ZM26.3695,9.7307c.0729-.2031.0781-.2396.0104-.2031-.0677.0469-.1667.2917-.1875.4583-.0104.125.0937-.0313.1771-.2552ZM17.3956,7.814c.0052-.0156-.0156-.0469-.0417-.0677-.0208-.026-.0469-.0208-.0521.0104-.0104.0312.0104.0573.0365.0677.0312.0052.0521,0,.0573-.0104ZM17.9216,7.9025c.0052-.0313-.0156-.0573-.0469-.0625-.0313-.0104-.0469.0104-.0313.0417.0104.0365.026.0625.0417.0677.0104,0,.026-.0208.0365-.0469ZM24.4112,9.0432c.0208.0208.0469,0,.0573-.0417.0104-.0469-.0052-.0885-.0312-.0937-.0312-.0052-.0573,0-.0573.0104-.0052.0104-.0208.0521-.0417.0885-.0156.0312-.0156.0469,0,.0312.0156-.0208.0469-.0208.0729.0052ZM15.0153,6.7984c.0052-.026-.0104-.0573-.0365-.0625-.0312-.0052-.0573.0104-.0677.0417-.0052.026.0156.0573.0417.0625.026.0052.0573-.0104.0625-.0417ZM17.0362,7.2359c.0104-.0417-.0052-.0833-.0312-.0885-.026-.0052-.0417.026-.0365.0729.0052.0469.0208.0885.0313.0885.0104.0052.026-.0313.0365-.0729ZM26.6091,9.1213c.0521-.1979.0469-.2083-.0365-.1302-.0573.0521-.099.1615-.1094.2656-.0156.2292.0677.1458.1458-.1354ZM15.9528,6.8557c.0208-.0208.0208-.0625-.0052-.0833-.0208-.026-.0521-.0104-.0625.0312-.0208.0938.0052.1146.0677.0521ZM16.9633,6.9963c.0156-.0417.0156-.0677-.0104-.0521-.0208.0104-.0521.0573-.0677.099-.0156.0469-.0104.0677.0104.0573.0208-.0156.0521-.0625.0677-.1042ZM24.7289,8.7463c-.0104-.1042-.0885-.0885-.1354.0313-.0417.099-.0365.1094.0469.0677.0521-.026.0937-.0729.0885-.099ZM15.9528,6.2827c.0104-.0469-.0052-.0833-.0312-.0937-.0312-.0052-.0469.0312-.0417.0729.0104.0469.0208.0885.0312.0938.0156,0,.0312-.0313.0417-.0729ZM16.6924,6.4286c.0312-.0521.026-.1146-.0052-.1354-.0417-.026-.0625.0052-.0625.0937-.0104.1563.0052.1615.0677.0417ZM17.5466,6.6734c.0104-.026-.0104-.0573-.0417-.0625-.0312-.0104-.0469.0156-.0365.0469.0156.0313.0313.0625.0469.0625.0104.0052.026-.0156.0312-.0469ZM15.307,6.0015c.0052-.0208.0417-.1198.0833-.2083l.0677-.1719-.151.1406c-.0781.0781-.1406.1719-.125.2031.0208.0729.1094.099.125.0365ZM17.2706,6.2307c.0052-.0313-.0156-.0573-.0417-.0677-.0312-.0052-.0469.0156-.0365.0469.0104.0365.0312.0625.0417.0677.0156,0,.0312-.0208.0365-.0469ZM15.2393,5.6786c.0312-.0417.026-.0625-.0104-.0521-.0312.0104-.0625.0417-.0677.0677-.0156.0729.026.0677.0781-.0156ZM16.5258,5.8296c-.0052-.0417-.0208-.0365-.0365.026-.0156.0521-.0104.0885.0104.0729.0208-.0104.0365-.0573.026-.099ZM14.9893,5.4234c-.0052-.0469-.0208-.0365-.0365.026-.0156.0521-.0104.0833.0104.0729.0208-.0156.0312-.0573.026-.099ZM15.2497,5.1004c-.0365-.0625-.0469-.0625-.0365.0208.0104.0573.0312.0885.0521.0781.0208-.0104.0104-.0573-.0156-.099ZM26.7237,7.5796c-.0104-.0312-.0469-.0469-.0781-.0365-.026.0104-.0469.0417-.0365.0729.0104.0313.0469.0469.0781.0365s.0469-.0417.0365-.0729ZM16.1299,5.0223c.0052-.0104-.026-.0417-.0677-.0677-.0417-.0312-.0625-.026-.0521.0052.0208.0573.1146.1042.1198.0625ZM26.682,7.4129c.0052-.0312-.0104-.0573-.0417-.0625-.026-.0104-.0521.0104-.0625.0365-.0052.0313.0104.0573.0417.0625.026.0104.0573-.0104.0625-.0365ZM27.4216,7.0327c-.0208-.0677-.0521-.1094-.0677-.099-.0208.0104-.0208.0625.0052.1094.026.0469.0208.125-.0104.1771-.0469.0781-.0469.0833.026.0104.0573-.0573.0677-.1094.0469-.1979ZM16.4216,4.6369c.0052-.0365-.026-.0781-.0729-.0885-.0469-.0104-.0937.0104-.099.0469-.0104.0365.0208.0781.0677.0885.0469.0104.0937-.0104.1042-.0469ZM27.9633,7.0536c.0052-.0312,0-.0573-.0104-.0573-.0156-.0052-.0417.0156-.0677.0365-.026.026-.0208.0521.0104.0573.0312.0104.0625-.0104.0677-.0365ZM27.5153,6.8713c0-.0104-.0156-.0417-.0417-.0677-.0208-.0208-.0469-.0208-.0573.0104-.0052.0312.0104.0625.0417.0677.026.0052.0521,0,.0573-.0104ZM27.7497,6.7879c.0104-.0312-.0104-.0573-.0365-.0677-.0312-.0052-.0573.0156-.0677.0417-.0052.0313.0156.0573.0417.0625.0312.0104.0573-.0104.0625-.0365ZM16.0987,3.9807c.0052-.0104-.026-.0417-.0677-.0677-.0417-.0312-.0677-.026-.0521.0052.0156.0573.1094.1042.1198.0625ZM12.4476,18.7671c.0312-.0469.0312-.099.0104-.125-.0521-.0521-.0365-.1406.026-.125.0729.0156.0573.25-.0156.2917-.0521.0312-.0573.0156-.0208-.0417ZM7.1403,17.2879c.026-.026.0677-.0365.0937-.0312.0313.0052.0313.0312.0104.0573-.026.0208-.0677.0365-.099.0312-.026-.0052-.0312-.0312-.0052-.0573ZM14.2341,18.7307c.0104-.0469.0208-.099.026-.1198,0-.0208.0313-.0417.0625-.0417.0781-.0104.0312.1927-.0469.224-.0312.0104-.0521-.0208-.0417-.0625ZM6.9112,16.3765c-.0521-.0625-.0417-.2604.0104-.2031.026.0208.0469.0885.0469.151.0052.0833-.0156.099-.0573.0521ZM16.781,18.4859c.0312-.0625.0885-.1302.1406-.1563.0729-.0365.0729-.026.0104.0677-.0417.0625-.0729.1406-.0677.1771.0052.0312-.026.0521-.0625.0417-.0469-.0104-.0521-.0521-.0208-.1302ZM6.531,14.5796c-.0208-.0885-.0052-.0885.0573-.0104.0938.1406.099.1667.026.151-.026-.0052-.0625-.0729-.0833-.1406ZM26.0674,14.3661c.0052-.0417.0365-.0625.0625-.0365.0208.026.0365.0677.0312.0938s-.0365.0417-.0625.0365c-.0312-.0052-.0417-.0469-.0312-.0937ZM20.7601,11.8713c.0104-.0312.0365-.0365.0573-.0104.026.0208.0417.0521.0417.0677-.0052.0104-.0312.0156-.0573.0104-.0312-.0104-.0469-.0365-.0417-.0677ZM21.5466,11.1994c-.0104-.0781-.0052-.0833.0365-.0208.026.0417.0312.0885.0104.099-.0156.0104-.0417-.0208-.0469-.0781ZM13.0674,9.0692c.0521-.1042.1458-.0833.1562.0365.0052.0469-.0104.0573-.0417.026-.026-.026-.0573-.026-.0625.0052-.0052.0312-.0312.0469-.0573.0417-.026-.0052-.026-.0521.0052-.1094ZM13.3851,8.2411c.0156-.0573.0313-.0677.0365-.0208.0052.0417-.0052.0833-.026.099-.0208.0104-.026-.0208-.0104-.0781ZM13.8591,7.59c.0156-.0573.0312-.0677.0365-.0208.0104.0365-.0052.0833-.026.0937-.0208.0156-.026-.0156-.0104-.0729ZM25.1872,8.0171c.0156-.0625.0312-.0729.0417-.026.0052.0417-.0104.0833-.0312.099s-.026-.0208-.0104-.0729ZM25.9737,7.4129c.0104-.0312.0365-.0469.0625-.0417.0312.0052.0469.0365.0417.0625-.0052.0312-.0365.0469-.0625.0417-.0312-.0052-.0469-.0365-.0417-.0625ZM15.6768,3.9129c.0052-.0208.0469-.0312.0885-.026.0417.0104.0573.0365.0365.0573-.0208.0208-.0573.0313-.0833.026-.026-.0052-.0469-.0312-.0417-.0573ZM27.3956,6.3244c.026-.026.0521-.0417.0677-.0417.0104.0052.0156.0313.0104.0573-.0052.0312-.0365.0469-.0677.0417-.0312-.0104-.0365-.0312-.0104-.0573ZM6.4372,21.34c0-.0885.0312-.1771.0781-.2187.0417-.0365.1458-.1354.224-.2135.0833-.0833.1875-.1302.25-.1198.0521.0156.0885,0,.0781-.0312-.0052-.0312.0156-.0573.0521-.0573.0521-.0052.0521-.0208.0104-.0625-.026-.026-.0573-.026-.0625.0052-.0052.026-.0365.0469-.0625.0417-.0312-.0052-.0417-.0729-.026-.1406.0208-.0781.0625-.125.1094-.1146.0417.0104.0677-.0156.0625-.0573-.0052-.0469.0625-.0781.1875-.0885.1042-.0052.1771.0052.1563.026-.0833.0885.0677.0625.1615-.026.0573-.0469.1302-.0833.1719-.0833.0417.0052.1094-.0052.1562-.0208.0573-.0208.0885-.0052.0938.0365.0052.0365.0365.0729.0781.0781.0365.0104.0677-.0156.0625-.0573-.0104-.0417.0156-.0677.0573-.0625.1406.0208.2344.0052.375-.0469.0781-.0365.1615-.0469.1771-.026.0208.0208.1042.0104.1823-.0156.1094-.0417.151-.0365.1719.0156.0156.0521.0469.0417.0937-.0365.0417-.0677.0937-.0885.1406-.0573.0365.026.0885.0208.1146-.0052.0312-.0312.0573-.0156.0729.0469.0156.0521.0677.1042.1198.1146.0729.0104.0729.0052-.0052-.0521-.0625-.0469-.0677-.0625-.0156-.0521.0469.0052.1302-.026.1927-.0729.0625-.0417.1406-.0729.1771-.0677.0521.0156.0469.026-.0156.0469-.0573.0208-.0625.0417-.026.0781.0625.0625.2344-.0208.2083-.099-.0156-.0417,0-.0417.0312-.0052.0365.0312.0833.026.1198-.0052.0521-.0521.0677-.0469.1042.026.0312.0781.0365.0781.026-.0052,0-.0521.0208-.1042.0521-.1146.0312-.0104.0469.0156.0365.0625-.0156.0625.0156.0677.1875.0104.1146-.0365.25-.0417.3021-.0156.0677.0365.1042.026.1146-.026.0104-.0417.0469-.0573.0781-.0365s.1302.0208.2135,0c.1146-.0312.1615-.0208.1823.026.0104.0417,0,.0521-.0312.0208-.026-.0312-.0521-.0365-.0573-.0208-.0104.0469.2344.1927.2917.1719.0365-.0104.0417-.0573.0104-.1146-.0365-.0781-.0312-.0885.0104-.0469.0312.0365.0625.0208.0729-.0312s.0521-.0677.1042-.0417c.0469.0208.0729.0625.0573.099-.0104.0312,0,.0625.0312.0677.0313.0104.0573-.0365.0625-.099.0052-.0677.0365-.1198.0729-.125.0365,0,.0365.0521,0,.1406-.0417.1042-.0938.151-.1875.151-.0729,0-.1354.026-.1458.0573-.0052.0312.0156.0469.0469.0312.0365-.0104.0365.0156.0104.0573-.026.0365-.026.0781.0052.0833s.0781-.0312.1094-.0833.0781-.0885.1042-.0833c.0208.0052.0677-.0365.099-.0885.0365-.0625.0885-.0833.125-.0573s.0677.026.0677.0052c.0052-.0208.0156-.0729.0312-.1198.0312-.1042.25-.1198.2292-.0208-.0104.0469.0156.0677.0781.0573.0677-.0052.0781.0052.0313.0469-.0365.0417-.0313.0521.0156.0365.0521-.0208.0625-.0469.0312-.0937-.0573-.099-.0365-.1562.0521-.1354.0365.0052.0729.0573.0729.1094q.0052.0937.0312.0104c.0156-.0521.0521-.0833.0833-.0781s.0365.0417.0156.0781c-.0208.0312-.0104.0677.026.0781.0417.0104.0677,0,.0573-.0208-.0052-.0208.0208-.0677.0573-.1042.0521-.0521.0677-.0469.0937.0208.0208.0625.0417.0573.0885-.0208.0365-.0573.0781-.0885.099-.0677s.0781.0104.125-.0156c.0625-.0365.1146-.0365.1615.0052.0469.0417.099.0469.151.0052.0885-.0677.2031-.0677.1406,0-.026.0208-.0156.0625.0156.0937.0312.026.0417.0312.026,0-.0156-.026.0052-.0781.0469-.1094.0573-.0417.0885-.0365.1354.026.0417.0573.0573.0625.0573.0052,0-.0469.0677-.0625.1823-.0469.2656.0312.3385.0312.4219,0,.0417-.0104.0938-.0052.1198.0208.026.0208.0469.0208.0573-.0052.0052-.026.0677-.0469.1406-.0417.0729,0,.1198.0156.099.0365-.0156.0208-.0104.0573.0104.0781.026.026.0521.0156.0625-.0208.0104-.0469.026-.0417.0521.0208.026.0729.0417.0729.0885-.0208.0677-.1198.1354-.125.1562-.0156.0052.0469.0417.0469.1198-.0156q.1042-.0833.1563.0365c.0469.1042.0521.1042.0729.026.0104-.0521.0469-.0781.0833-.0677.0312.0156.1094.0208.1719.0052.0677-.0104.1094.0052.1146.0417.0052.0417.0573.0312.1354-.0156.0937-.0573.1719-.0625.2656-.0208.0781.0312.1667.0417.2083.0156.0365-.0208.125-.0365.1875-.026.0677.0104.1615.0104.2083.0052.0833-.0104.375,0,.5677.0208.0573.0052.1302.0052.1615-.0052.0313-.0104.1823.0156.3281.0521.151.0312.276.0417.2812.0156.0052-.026.026-.026.0365-.0052.0156.026.0781.0156.1406-.0208.0677-.0365.1615-.0417.2396-.0052.0677.0312.1406.0365.1667.0156.0729-.0729.125-.0156.1146.1302q-.0104.1406.026.0208c.0417-.1458.2865-.2708.2552-.1302-.0156.0625.0052.0625.1146,0,.0729-.0417.1615-.0573.1927-.0312.0365.0208.0833.0156.1094-.0104.0312-.0312.0729-.0208.1302.026.0625.0521.0937.0573.1198.0156.026-.0469.0573-.0365.1146.0417.0417.0521.0677.0677.0573.0312-.026-.0781.2292-.0729.9792.0208.0625.0052.1354,0,.1562-.0104.0208-.0156.0677-.0052.1042.0208.0365.0208.0729.0156.0781-.0208.0104-.0469.0312-.0469.0729.0156.0469.0573.0729.0625.1094.026.026-.026.0781-.0312.1146-.0052s.0729.026.0781.0052.0833-.026.1771-.0104.2448.026.3333.026c.1875.0052.2656.0104.6667.0625.1615.0156.3385.0365.401.0365.0573.0052.1198.0365.1302.0729.0208.0469.0469.0469.0885.0052.0365-.0365.1771-.0417.3542-.0104.25.0469.3021.0729.349.1823l.0521.125.026-.125c.0208-.0885.0417-.1042.0729-.0521.0937.151-.3177.3646-.5417.276-.0937-.0365-.1354.0521-.0833.1719q.0521.1146.0781.0104c.026-.0937.0312-.0885.0937.0469s.0729.1406.1406.0625c.0521-.0521.0781-.0573.0937-.0104.0208.0573.0469.0625.1094.026.0677-.0312.0885-.026.0729.0208-.0052.0417.0312.0625.099.0625.0573,0,.1042.0156.099.0417-.0104.026.0104.0521.0417.0625.0312.0052.0469-.0156.0365-.0469-.0156-.0365.0833-.0312.2396.0156.1406.0365.25.0885.2448.1094-.0052.026.0156.0365.0521.026.0312-.0156.0417.0365.026.1094s-.0469.1302-.0677.1302c-.0208-.0052-.0885-.0104-.1458-.0104-.0625-.0052-.1198-.0365-.1354-.0781-.0156-.0521-.026-.0521-.0365-.0052-.026.099-.1094.0573-.2031-.0937l-.0833-.1302.0052.1146c.0104.0833-.0104.1094-.0677.099-.0469-.0104-.0885.0104-.099.0469-.0104.0417-.026.0312-.0469-.026-.0312-.0781-.0469-.0781-.1302-.0156-.0677.0573-.0937.0625-.1042.0052-.0052-.0521-.026-.0573-.0677-.026-.0573.0469-.1406.0312-.3177-.0781-.0833-.0469-.099-.0417-.0885.0417.0104.099.0052.0937-.0781-.0208-.0521-.0781-.0937-.099-.1042-.0625-.0052.0365-.0365.0417-.0625.0156s-.0781-.0208-.1146.0104c-.0469.0417-.0677.0417-.0781-.0052-.0052-.0417-.0469-.0625-.0937-.0573-.0417.0052-.0729-.0208-.0625-.0573.0104-.0417-.0208-.0365-.0781.0104-.0521.0521-.1198.0625-.1667.0312-.0417-.026-.0833-.0312-.099-.0104-.0208.0312-.1823.0156-1.0312-.099-.0833-.0104-.2031-.0104-.2552-.0052-.0625.0104-.0937-.0052-.0833-.0469.0104-.0469-.0052-.0521-.0781-.0156-.0521.026-.1458.0208-.2187-.0052-.0677-.0312-.125-.0365-.1302-.0104-.0104.026-.0573.0208-.1146-.0104-.0625-.0365-.0937-.0365-.0833-.0052.0104.0365-.0781.0312-.2135-.0052-.151-.0417-.25-.0417-.276,0-.0625.0885-.1406.0573-.1146-.0521.0156-.0677.0052-.0729-.0417-.0312-.0312.0365-.1979.0365-.4167,0-.1979-.0312-.3802-.0365-.4062-.0104-.0312.0365-.0521.026-.0573-.026-.0104-.0625-.026-.0677-.0937-.026-.099.0573-.1875.0469-.125-.0156.0208-.026-.0208-.0312-.1042-.0156s-.151.0521-.1562.0781c-.0104.026-.0469.026-.0833,0-.0365-.0208-.0833-.026-.1042-.0104-.0365.0417-.224-.0052-.2656-.0677-.0365-.0573-.1823-.026-.1615.0365.0104.0312-.0521.0365-.1406.0156-.0937-.0208-.1667-.0052-.1719.0312-.0156.0469-.0208.0469-.0417-.0156-.026-.0573-.0625-.0677-.1927-.0469-.0938.0156-.1823.026-.2031.026-.0208-.0052-.0573.0104-.0833.026-.0833.0521-.1458.0104-.099-.0625.0365-.0521.0104-.0573-.1406-.0156-.099.0312-.2187.0521-.2656.0469-.3073-.0469-.4062-.0469-.474-.026-.0417.0156-.0885.0104-.099-.0052-.0104-.0208-.0677-.026-.125-.0104-.0729.0208-.1094.0052-.1146-.0417-.0052-.0521-.026-.0573-.1094-.0156s-.099.0417-.0833-.0208c.0104-.0521-.0104-.0521-.0729,0-.0573.0469-.1042.0521-.1615,0-.0573-.0521-.099-.0417-.1875.0469-.1094.1042-.125.1042-.1927.0104-.0365-.0573-.0833-.0833-.099-.0573-.0208.026-.0937.0417-.1667.0365-.0729-.0104-.1719,0-.2187.0156-.1146.0417-.224.0208-.3229-.0573-.0521-.0365-.0937-.0312-.125.0104-.026.0417-.0833.0625-.1302.0521-.0417-.0104-.1354,0-.2083.0156-.0677.0208-.1875.026-.2604.0104-.0781-.0156-.1823-.0052-.2396.0208-.0833.0469-.099.0417-.0781-.0312.0156-.0677-.0156-.0677-.1406.0208-.1146.0781-.1823.0885-.2604.0417-.0677-.0365-.099-.0365-.0833,0,.0208.0677-.0781.0417-.1562-.0417-.0312-.0312-.099-.0104-.1615.0469s-.099.0677-.0937.026c.0156-.0573-.0156-.0573-.1042-.0052-.0833.0469-.1198.0469-.1094.0052.0052-.0365-.026-.0573-.0729-.0521-.0469.0052-.0781-.0104-.0729-.0365.0208-.0937-.0781-.0729-.1302.026s-.1719.1146-.151.0156c.0052-.0312-.1042-.0208-.2448.0208-.1719.0521-.2448.0521-.2188.0104.0313-.0417.0104-.0677-.0573-.0781-.0625-.0104-.099.0104-.0937.0573.0052.0365-.0156.0677-.0469.0625-.0365,0-.0833-.0104-.1146-.0104-.0313-.0052-.0781.0104-.1042.0365-.026.026-.099.0573-.1667.0781-.0885.026-.125.0104-.1719-.0885-.0573-.1146-.0625-.1146-.2135-.0156-.1146.0729-.1719.0833-.2083.0312-.0417-.0521-.0573-.0469-.0729.0104-.026.1094-.3229.1406-.3906.0417-.0365-.0625-.0469-.0469-.0417.0625.0052.0885-.0052.1094-.026.0521-.0417-.099-.3594-.1146-.4271-.0156-.0208.0365-.0573.0469-.0781.0312-.0208-.0208-.0677-.0104-.1094.0208-.0417.0365-.1146.0417-.1667.0156-.0469-.026-.1406-.0156-.2031.026-.1094.0677-.1146.0625-.0625-.0104.0365-.0521.0312-.0885-.0156-.099-.0365-.0104-.0938.0156-.1198.0573-.0312.0469-.0833.0573-.125.026-.0365-.026-.0625-.0208-.0521.0052.0104.0312-.0104.0677-.0417.0781-.0365.0104-.0573-.0104-.0469-.0469.0104-.0417-.0312-.0365-.1042.0156-.0625.0521-.151.0729-.2031.0521-.0625-.0208-.0833-.0052-.0781.0521.0104.0781-.0156.0781-.1875.0052-.1354-.0521-.1979-.0573-.1875-.0208.0156.0365-.0156.0521-.0625.0417-.0469-.0104-.0729.0052-.0625.0365.026.0729-.1302.0833-.1771.0052-.0313-.0417-.0625-.0312-.099.0312-.0417.0677-.0833.0833-.151.0469-.0521-.026-.1042-.026-.1094.0052-.0052.0312-.0469.0365-.0833.0104-.0521-.0365-.0781-.0104-.099.0729-.026.099-.0365.1094-.0677.0312-.026-.0677-.0469-.0729-.0781-.026s-.0573.0417-.099-.0208c-.0365-.0417-.0677-.0521-.0781-.0312-.0052.026-.0208-.0156-.026-.0937q-.0156-.1354-.0417.0156c-.0208.1302-.0417.151-.1146.1198-.0521-.0208-.1302-.0156-.1771.0052-.0677.0365-.0833.0156-.0885-.1042ZM7.3435,20.8452c.0104-.0312-.0156-.026-.0573.0104-.0365.0365-.0729.0937-.0781.1198s.0208.0208.0573-.0156c.0365-.0365.0729-.0885.0781-.1146ZM7.6039,20.9077c.0052-.0156-.0156-.0417-.0365-.0677-.026-.026-.0521-.0208-.0573.0104-.0104.0312.0104.0625.0365.0677.0313.0052.0521,0,.0573-.0104ZM9.656,20.9025c-.0052-.0469-.0208-.0365-.0365.0208-.0156.0573-.0104.0885.0104.0781.0208-.0156.0312-.0573.026-.099ZM10.6091,20.8557c.0052-.026-.0312-.0573-.0781-.0677-.0781-.0208-.0833-.0104-.026.0469.0833.0833.0885.0885.1042.0208ZM10.4216,20.0952c-.0312-.0937-.1042-.0625-.099.0469,0,.0833.0156.099.0573.0573.0312-.0312.0521-.0781.0417-.1042ZM11.7289,20.3973c-.0052-.0417-.0208-.0365-.0365.026-.0156.0521-.0104.0885.0104.0729s.0312-.0573.026-.099ZM12.9685,20.6369c.026-.0208.0208-.0469-.0104-.0573-.0313-.0052-.0573.0156-.0677.0417-.0052.026,0,.0521.0156.0573.0104,0,.0417-.0156.0625-.0417ZM10.9528,20.0744c.0104-.0521-.0156-.099-.0521-.1094-.0573-.0156-.0677.0052-.0365.0885.0208.0625.0417.1094.0521.1146.0052,0,.0208-.0417.0365-.0937ZM11.2185,20.1057c0-.0156-.0156-.0469-.0417-.0677-.026-.026-.0521-.0208-.0573.0104-.0052.0312.0104.0573.0417.0677.026.0052.0521,0,.0573-.0104ZM11.5987,20.1004c.0052-.026.0312-.0312.0573-.0104.0208.026.0469.0208.0573-.0156.0052-.0312-.0208-.0521-.0625-.0469-.0469.0052-.099-.0208-.125-.0625-.0312-.0521-.0469-.0573-.0573-.0104-.0104.0312-.0469.0417-.0833.0156-.0417-.0312-.0781-.0208-.0885.0156-.0052.0365.0312.0573.099.0573.0573,0,.1042.0156.099.0417-.0104.026.0104.0521.0365.0625.0312.0052.0573-.0156.0677-.0469ZM19.4216,20.2671c.0781-.0781.0208-.1094-.0729-.0417-.0521.0417-.0625.0677-.026.0781.0312.0052.0729-.0104.099-.0365ZM24.3383,20.6942c.0208-.099.0104-.1615-.0312-.1719s-.0729-.0052-.0781.0052c-.0052.0312.0521.3125.0677.3177,0,0,.0208-.0677.0417-.151ZM11.7445,19.814c-.0104-.0312.0052-.0521.0365-.0469.0312.0052.0469.0365.0417.0625-.0052.0312-.0208.0521-.0365.0469-.0104,0-.0312-.0312-.0417-.0625ZM25.9841,21.1994c.0156-.0573.0312-.0677.0417-.0208.0052.0417-.0104.0833-.0312.099-.0208.0104-.026-.0208-.0104-.0781Z" fill="#f4dc79"/></g><g clip-path="url(#clippath-2)"><g clip-path="url(#clippath-3)"><g clip-path="url(#clippath-4)"><path d="M2.8903,25.3036c.5729-.1823,1.0885-.5208,1.4792-.9792.0104-.0104.0312-.0052.0312.0104.0729.7187-.0573,1.4531-.375,2.099-.0052.0156.0104.0312.0208.026.7604-.2187,1.4583-.6354,2-1.2083.0104-.0104.0313,0,.0313.0156l-.25,2.5208c0,.0156.0208.026.0312.0156.6198-.5937,1.3021-1.1823,1.8125-1.8802.0052-.0104.026-.0052.0313.0052.1042.4479.1198.9115.0469,1.3646,0,.0104.0104.0208.026.0208.5208-.151.9844-.5104,1.2604-.9844.0052-.0104.0208-.0104.026,0,.151.2969.2292.625.224.9583,0,.0104.0156.0208.026.0104.3438-.224.5938-.5937.6719-1,0-.0156.0208-.0208.0312-.0052.0573.125.2344.3281.2812.401.0833.1354.1615.2656.2812.3698.2292.2031.5156.3958.8073.5052.0104,0,.0208-.0052.026-.0156l.5625-1.849c.0052-.0104.0156-.0156.026-.0052,1.7292,1.1719,3.2083,2.7083,4.3125,4.4792.0104.0104.0312.0104.0312-.0052.2865-1.2969-.0156-2.7031-.7917-3.776-.0156-.0156.0052-.0312.0208-.026l.5573.3542h.0156l.4583-.2135c.0052,0,.0156,0,.0208.0052l.6719.6823c.0052.0104.0208.0052.026-.0052l.2656-.724c.0052-.0156.0312-.0104.0312.0052.0365.375.1927.7344.4375,1.0156.0052.0104.0156.0104.026.0052l1.5365-1.5312c.0104-.0104.026-.0104.0312.0052.5156,1.2969.7604,2.7031.7083,4.1042,0,.0156.0208.0208.0312.0104.9115-.8437,1.5677-1.9635,1.8594-3.1719.0052-.0208.0312-.0156.0365,0l.0417.4062c.0052.0156.026.0208.0365.0104l.5052-.8281c.0052-.0104.0208-.0104.026-.0052l.6406.6354c.0052.0104.0208.0052.026-.0052.1927-.3854.2708-.8281.2292-1.2552,0-.0156.0156-.026.026-.0208.8542.4271,1.6042,1.0573,2.1719,1.8229.0104.0156.0365.0052.0312-.0104-.151-1.1406-.7552-2.2135-1.651-2.9323-.0156-.0104,0-.0365.0156-.026l2.8073,1.0365c.0208.0104.0312-.0156.0208-.026l-1.2604-1.0312c-.0104-.0104,0-.0365.0156-.0312,2.0052.3437,4.0677.3333,6.0729-.0208.0156-.0052.0208-.0312,0-.0365l-4.6927-1.1458c-.0208-.0052-.0208-.0365,0-.0365.6823,0,1.3594-.2187,1.9115-.6042.0156-.0104.0104-.0312-.0052-.0312l-1.3802-.1979c-.0156,0-.0208-.026-.0052-.0312.2135-.0885.8021-.276,1.0104-.3594.0208-.0052.0156-.0312,0-.0312-.401-.0677-.7552-.2135-.9062-.2292-.0156-.0052-.0208-.0208-.0104-.0312.7812-.7917,1.5156-1.1615,2.2969-1.9427.0104-.0104,0-.0365-.0156-.026l-2.6719.8698c-.0156.0052-.0312-.0208-.0156-.0312.6979-.5208,1.2396-1.25,1.5312-2.0677.0052-.0156-.0104-.0312-.026-.0208l-2.0417,1.2448c-.0156.0104-.0312-.0052-.026-.0208.4531-1.0052,1.026-1.9531,1.7135-2.8177.0052-.0104,0-.026-.0156-.026-1.3333-.0208-2.6719.4948-3.6458,1.4062-.0104.0104-.0312,0-.0312-.0156l.5-2.4271c.0052-.0208-.0156-.0312-.026-.0156-.401.4271-1.0885.474-1.5937.2083-.5833-.3125-.8281-1.1094-1.125-1.6823-.0104-.0156-.026-.0156-.0312,0-.151.2917-.349.5573-.5833.7865-.0156.0104-.0365,0-.0312-.0156.2135-.724.526-1.4115.9323-2.0417.0104-.0156-.0104-.0312-.026-.026-.5937.3385-1.125.7865-1.5677,1.3125-.4479.5417-.4792.9792-.7135,1.5781-.0052.0156-.026.0104-.0312-.0052-.1094-.5729-.1823-1.1615-.276-1.7396-.0469-.3281-.3802-1.3073-.2448-1.5938l-1.1302,2.4375c-.0052.0156-.0312.0104-.0312-.0052-.2552-1.401.5573-2.9115,1.8385-3.5104.0156-.0104.0052-.0417-.0156-.0365-1.776.5729-3.3073,1.8906-4.1198,3.5781-.0052.0104-.0208.0156-.0313,0l-1.0833-1.5781c-.0104-.0156-.0313-.0052-.0313.0104l.026,1.3333c0,.0208-.0208.026-.0312.0104-.625-1.2344-1.6458-2.2656-2.875-2.901-.0052-.0052-.0208-.0052-.0208.0052-.1406.2708-.0417.6042.0885.8854.1302.2865.2865.5833.2344.8906-.0469.2969-.4115.5469-.651.3854-.0156-.0104-.0313,0-.0313.0156.0052.2917.0104.5885.0104.8854.0677-.3073-.2448-.6302-.5521-.5833-.0156,0-.0208.0208-.0104.0313.4687.5729-.1198,1.5312-.8646,1.6719-.75.1354-1.4896-.2552-2.1563-.6406.7396.3646,1.25,1.1562,1.2813,1.9792,0,.0156-.0156.0208-.026.0208-1.0729-.3958-2.2031-.6302-3.3438-.6927-.0208,0-.026.026-.0052.0312.474.1875.8958.5104,1.2031.9167.0104.0156-.0052.0365-.0208.026l-2.6458-1.125c-.0156-.0104-.0313.0104-.0208.026l.3594.5417c.0052.0104,0,.026-.0104.026l-.974.3177c-.0052,0-.0104.0052-.0104.0156l-.0156.4844c0,.0104-.0104.0208-.0208.0156l-1.4427-.3594c-.0104-.0052-.0208.0052-.0208.0156l.0365.75.0052.0052c.3906,1.0417,1.5573,1.724,2.651,1.5729.0208-.0052.0312.0208.0104.0312-1.75.7812-3.7969.8802-5.6146.2656-.0208-.0052-.0312.0208-.0156.0312,1.3802.9167,3.1302,1.2604,4.7552.9271.0156-.0052.0313.0156.0156.026-.5573.6458-1.3229,1.1042-2.151,1.3021-.0156.0052-.0156.0312.0052.0365.6771.0937,1.349-.0417,1.9635-.3281.0208-.0104.0365.0156.0208.026-.7552.849-1.2656,1.7448-1.8594,2.7187-.0052.0156.0052.0312.0208.026Z" fill="#fff"/></g></g></g></svg>