<?xml version="1.0" standalone="no"?>
<!DOCTYPE svg PUBLIC "-//W3C//DTD SVG 20010904//EN"
 "http://www.w3.org/TR/2001/REC-SVG-20010904/DTD/svg10.dtd">
<svg version="1.0" xmlns="http://www.w3.org/2000/svg"
 width="300.000000pt" height="392.000000pt" viewBox="0 0 300.000000 392.000000"
 preserveAspectRatio="xMidYMid meet">
<metadata>
Created by potrace 1.10, written by Peter Selinger 2001-2011
</metadata>
<g transform="translate(0.000000,392.000000) scale(0.100000,-0.100000)"
fill="#000000" stroke="none">
<path d="M1291 3826 c-6 -24 -15 -99 -21 -167 -6 -68 -12 -128 -14 -134 -2 -5
-11 6 -21 25 -10 19 -57 89 -104 155 l-86 120 -3 -47 c-3 -43 8 -154 23 -250
8 -47 -1 -48 -40 -5 -27 31 -50 52 -184 170 -24 21 -46 36 -48 33 -3 -2 11
-53 30 -113 19 -59 38 -124 42 -143 l7 -35 -33 31 c-19 17 -63 51 -99 74 -36
24 -75 52 -87 63 -27 24 -41 16 -26 -16 13 -28 63 -179 63 -190 0 -5 -13 1
-29 12 -16 12 -31 21 -34 21 -2 0 -37 18 -77 40 -40 22 -76 37 -81 35 -7 -5
50 -88 143 -206 14 -19 43 -63 62 -98 34 -59 35 -65 20 -82 -9 -10 -15 -31
-13 -51 2 -18 -3 -52 -10 -75 -12 -37 -12 -47 4 -85 9 -24 21 -74 26 -111 5
-37 25 -134 45 -215 20 -81 44 -193 54 -250 13 -77 24 -110 42 -130 12 -15 62
-69 111 -120 48 -51 95 -105 104 -120 23 -36 144 -188 182 -230 17 -18 31 -43
31 -55 0 -24 45 -117 87 -182 14 -22 48 -73 75 -112 l49 -73 -71 -70 c-39 -38
-65 -70 -59 -70 7 0 5 -8 -5 -19 -10 -11 -15 -24 -12 -30 4 -5 2 -12 -4 -16
-5 -3 -10 -17 -10 -31 0 -13 -4 -24 -9 -24 -11 0 -22 -29 -26 -67 -3 -30 -46
-76 -102 -109 -24 -14 -43 -30 -43 -36 0 -6 -10 -8 -25 -4 -19 5 -23 3 -19 -9
5 -11 2 -13 -12 -8 -12 4 -15 3 -10 -5 4 -7 -9 -3 -28 9 -32 18 -37 19 -42 5
-3 -9 -11 -13 -16 -10 -6 4 -41 15 -79 24 l-68 18 15 -29 c8 -17 23 -29 34
-29 11 0 20 -4 20 -10 0 -9 63 -41 79 -40 3 1 -5 10 -18 20 -28 24 -15 25 57
6 28 -8 52 -10 52 -5 0 5 9 9 21 9 13 0 18 4 13 12 -5 7 -2 9 8 5 18 -6 70 26
148 94 55 47 101 109 81 109 -15 0 -14 16 2 32 6 7 14 28 15 47 2 19 11 46 20
60 25 40 71 85 79 78 3 -4 -7 -21 -23 -38 -24 -26 -25 -30 -7 -20 12 6 26 11
30 10 4 -1 19 -1 33 0 18 1 21 4 11 10 -7 5 -10 14 -7 20 11 18 24 13 29 -11
4 -22 4 -22 6 2 l1 25 20 -30 c23 -35 26 -52 6 -36 -22 18 -30 -20 -11 -55 14
-28 20 -21 16 18 -3 28 16 21 21 -7 3 -14 1 -25 -4 -25 -5 0 -6 -9 -3 -20 4
-12 2 -20 -5 -20 -7 0 -9 -7 -6 -15 21 -51 21 -50 -7 -29 -14 10 -26 26 -27
34 0 13 1 13 10 0 14 -22 12 -5 -6 51 -9 27 -20 49 -24 49 -22 0 -42 -15 -56
-42 l-16 -30 26 18 c14 11 26 25 26 32 0 21 20 13 20 -8 0 -11 -6 -20 -12 -20
-7 0 -25 -23 -40 -51 -20 -39 -25 -56 -18 -74 16 -41 29 -38 27 7 -1 30 2 42
11 40 8 -1 12 11 12 35 0 28 3 34 10 23 14 -22 13 -81 -2 -78 -15 4 -28 -70
-17 -99 10 -27 19 -30 17 -5 -1 9 0 35 1 57 l3 40 13 -32 c13 -27 12 -35 -1
-63 -10 -19 -14 -43 -10 -61 4 -20 2 -28 -5 -23 -8 4 -8 0 0 -14 12 -22 5 -55
-10 -46 -5 3 -9 -7 -8 -23 0 -25 1 -26 9 -8 6 14 9 15 10 5 0 -9 6 -5 15 11 8
14 14 53 14 90 -1 82 1 88 11 64 5 -11 9 -42 9 -70 1 -32 4 -45 10 -36 6 9 10
10 16 2 3 -7 -7 -24 -24 -40 -36 -34 -38 -41 -11 -41 11 0 20 7 20 15 0 8 5
15 10 15 6 0 10 -15 10 -32 0 -25 -3 -29 -10 -18 -11 18 -12 17 -12 -75 l0
-60 -8 49 c-13 73 -26 75 -23 3 3 -44 -1 -67 -12 -81 -8 -11 -18 -17 -21 -13
-4 4 -1 15 7 24 11 14 8 14 -10 -2 -14 -11 -33 -28 -44 -38 -23 -23 -35 -14
-16 10 13 16 12 17 -3 4 -10 -7 -18 -20 -18 -27 0 -9 -11 -14 -27 -14 -16 0
-56 -13 -90 -30 -35 -16 -63 -25 -63 -20 0 6 4 10 8 10 4 0 8 8 8 19 0 12 -6
17 -18 13 -9 -2 -16 -9 -15 -16 1 -8 -37 -11 -128 -12 -71 -1 -132 -3 -135 -4
-3 -1 -17 -3 -32 -5 -34 -4 -37 12 -5 25 20 8 20 9 2 9 -11 0 -29 -6 -39 -14
-26 -20 -40 -19 -32 1 6 15 4 15 -11 3 -10 -8 -22 -20 -26 -26 -4 -7 -13 -13
-19 -13 -6 0 -4 8 5 18 21 23 21 32 2 32 -8 0 -15 -4 -15 -9 0 -5 -11 -11 -25
-14 -17 -3 -24 0 -22 7 3 6 9 10 15 9 5 -1 16 4 22 12 16 19 -1 20 -33 4 -16
-9 -22 -9 -25 0 -3 9 -7 9 -18 0 -19 -16 -30 -4 -14 16 19 23 0 18 -28 -7 -19
-18 -24 -19 -19 -6 4 12 2 15 -9 11 -10 -4 -12 0 -8 11 3 9 16 17 28 17 18 1
18 2 2 6 -10 3 -23 0 -29 -6 -13 -13 -77 -15 -77 -3 0 4 5 13 12 20 29 29 -53
-4 -102 -42 -13 -10 -13 -9 -1 7 12 15 11 17 -3 17 -9 0 -16 -7 -16 -15 0 -8
-6 -15 -14 -15 -23 0 -41 -29 -29 -48 5 -10 14 -17 19 -17 5 0 18 -6 29 -13
18 -12 18 -13 -8 -7 -16 3 -26 2 -23 -3 15 -25 -167 -17 -222 9 -47 23 -102
89 -102 122 0 51 23 94 63 121 23 14 47 24 53 22 6 -2 16 6 23 20 6 13 19 24
28 23 11 0 13 -3 5 -6 -7 -2 -17 -14 -23 -25 -10 -18 -9 -19 11 -8 18 10 25 9
37 -2 12 -13 11 -20 -7 -54 -12 -21 -15 -30 -8 -20 7 11 29 35 48 53 l35 34
-27 -7 c-18 -4 -28 -2 -28 5 0 6 12 11 26 11 14 0 23 4 19 10 -3 6 0 10 9 10
8 0 16 5 18 12 3 8 12 9 35 1 24 -9 35 -8 50 2 12 9 24 10 34 4 8 -5 20 -9 28
-9 11 0 9 4 -5 16 -18 14 -17 15 18 12 21 -2 38 0 38 5 0 5 7 6 16 3 8 -3 12
-2 9 4 -3 6 -15 10 -26 10 -10 0 -19 5 -19 11 0 7 9 9 22 6 13 -4 29 0 39 9
19 17 41 20 84 10 23 -6 26 -5 15 3 -13 9 -11 11 7 11 12 0 23 -5 25 -11 2 -5
28 -12 58 -14 30 -2 69 -6 85 -10 29 -6 29 -6 11 9 -11 9 -28 16 -39 16 -12 0
-17 5 -14 14 3 8 -1 20 -9 27 -16 13 -108 23 -100 10 6 -9 -31 -8 -40 2 -14
13 -26 7 -15 -7 10 -12 5 -13 -30 -9 -29 4 -40 3 -35 -5 4 -7 -5 -9 -31 -6
-29 4 -34 3 -23 -5 12 -9 11 -11 -7 -11 -13 0 -23 -4 -23 -9 0 -5 -18 -8 -40
-6 -22 2 -40 -1 -40 -6 0 -6 -5 -7 -10 -4 -6 3 -10 1 -10 -5 0 -6 -5 -8 -10
-5 -6 3 -17 -1 -26 -9 -9 -9 -20 -14 -25 -11 -5 4 -9 1 -9 -5 0 -6 -4 -9 -9
-6 -4 3 -21 1 -37 -4 -16 -5 -46 -12 -67 -15 -21 -3 -35 -10 -31 -16 3 -6 -4
-7 -20 -3 -17 4 -26 2 -26 -6 0 -6 -4 -9 -10 -5 -16 10 -110 -58 -98 -71 3 -2
0 -32 -7 -67 -9 -45 -9 -68 -1 -82 50 -91 126 -139 244 -155 56 -8 78 -7 95 2
12 7 49 14 82 14 33 1 77 9 98 18 27 12 43 14 57 6 39 -21 54 -6 24 24 -9 9
-32 16 -55 16 -24 0 -38 4 -34 10 4 6 -6 7 -26 3 -22 -4 -30 -3 -25 5 9 14
-14 21 -40 11 -24 -8 -64 -1 -64 12 0 8 1 8 95 11 61 1 89 -3 101 -15 4 -4 18
-7 30 -7 13 0 25 -4 29 -10 3 -5 12 -7 20 -3 9 3 21 0 29 -6 7 -6 21 -8 31 -5
9 4 20 2 25 -5 4 -7 26 -15 49 -18 22 -3 41 -10 41 -14 0 -14 29 -10 55 7 16
10 25 12 25 5 0 -7 13 -9 39 -5 26 4 49 1 68 -8 19 -9 37 -12 51 -7 11 4 50
10 85 12 35 2 69 7 76 11 7 5 9 1 4 -11 -6 -15 -4 -16 9 -5 16 13 40 20 87 27
12 2 34 14 48 27 l26 23 -12 -22 c-16 -32 -2 -29 26 5 15 18 21 21 16 8 -5
-17 -4 -17 17 -5 12 8 31 19 41 25 23 13 69 80 69 99 0 7 5 15 11 17 12 4 22
63 22 130 0 43 2 46 14 30 12 -15 13 -12 7 28 -4 25 -6 59 -6 76 1 17 -3 46
-8 63 -5 19 -5 31 1 31 5 0 7 10 4 22 -6 25 -13 228 -8 228 1 0 20 -23 42 -50
58 -73 73 -133 62 -256 -10 -105 -11 -110 -47 -191 -20 -45 -45 -143 -61 -240
-9 -56 30 -61 290 -37 50 5 78 2 110 -9 37 -15 347 -60 355 -53 7 8 -12 35
-34 46 -77 42 36 38 139 -5 26 -11 21 17 -9 50 -14 15 -24 28 -22 30 4 3 85
-19 111 -30 26 -11 22 30 -5 49 -22 16 -22 16 17 16 46 0 85 9 85 19 0 17
-115 62 -201 80 -52 11 -157 44 -234 73 l-140 54 1 79 c1 44 5 160 9 258 8
177 8 178 -15 202 l-23 25 51 21 c42 18 61 34 100 88 84 114 149 247 162 326
l6 40 16 -30 c26 -50 150 -173 181 -181 48 -11 96 5 137 46 l39 39 0 153 c0
158 7 200 51 323 27 74 23 159 -9 204 -36 51 -26 111 28 157 31 27 23 38 -26
38 -29 0 -42 -7 -65 -34 -38 -46 -37 -15 2 38 17 23 30 44 30 47 0 11 -58 4
-76 -10 -29 -22 -38 -18 -19 11 9 14 14 28 11 31 -11 11 -53 -8 -85 -39 -33
-32 -34 -32 -28 -8 18 78 19 100 4 100 -26 0 -63 -38 -75 -78 -7 -22 -12 -66
-12 -99 0 -34 -7 -78 -16 -99 -14 -33 -15 -61 -10 -172 4 -72 9 -147 12 -165
4 -28 3 -30 -8 -13 -37 54 -63 75 -128 105 -43 20 -94 35 -129 38 -53 5 -60 3
-90 -23 -41 -36 -61 -114 -55 -211 l5 -68 -24 45 c-13 25 -40 63 -61 85 -39
42 -136 224 -136 255 0 22 48 41 172 70 129 29 182 52 220 96 18 21 50 55 71
74 21 19 54 62 72 95 25 44 47 68 82 89 26 17 66 45 89 63 23 18 48 33 56 33
8 0 27 -13 43 -30 33 -34 40 -36 49 -15 7 20 -21 82 -53 118 -14 15 -21 27
-17 27 19 0 65 -32 81 -57 17 -25 19 -26 25 -8 4 12 2 28 -6 40 -18 25 -19 64
-2 47 32 -32 38 6 8 55 -10 18 -36 41 -57 53 l-38 20 30 -1 c46 -2 55 0 55 11
0 17 -121 70 -159 70 -44 0 -117 -35 -137 -66 -9 -12 -30 -32 -48 -42 -18 -11
-40 -35 -49 -53 -17 -37 -39 -58 -126 -123 -95 -70 -290 -157 -417 -186 -49
-12 -96 -23 -104 -26 -12 -3 -15 5 -15 36 0 45 -4 44 82 29 67 -12 110 -6 83
11 -8 5 -22 8 -30 5 -8 -2 -42 0 -75 4 l-60 7 60 18 c33 10 91 21 129 24 51 4
64 7 51 15 -21 11 -111 2 -179 -18 -58 -18 -66 -18 -66 -6 0 12 81 36 173 51
37 7 67 16 67 21 0 5 -6 9 -14 9 -25 0 -149 -28 -193 -44 -24 -8 -43 -13 -43
-11 0 11 54 31 154 56 111 29 124 34 113 45 -8 9 -217 -46 -245 -64 -27 -18
-25 -19 -39 43 -6 28 -14 60 -18 72 -5 16 -2 23 12 27 23 7 60 79 44 84 -5 2
-7 10 -4 18 3 8 0 21 -7 29 -7 8 -9 15 -4 15 4 0 3 5 -4 12 -7 7 -12 19 -12
28 0 8 -11 24 -25 34 -13 10 -23 22 -20 26 3 4 -9 13 -25 19 -17 6 -42 16 -58
21 -19 8 -33 25 -49 63 -12 28 -33 79 -46 112 -29 69 -50 173 -67 328 -16 159
-37 199 -59 113z m43 -167 c18 -164 41 -257 87 -354 19 -39 28 -70 23 -75 -5
-5 -33 -11 -63 -15 -30 -3 -62 -10 -72 -16 -10 -5 -22 -8 -26 -8 -4 1 -21 -3
-36 -9 -16 -7 -32 -12 -36 -12 -5 0 -29 -12 -55 -26 -25 -14 -50 -23 -55 -20
-5 3 -15 -1 -22 -10 -12 -14 -61 -44 -73 -44 -3 0 -1 11 6 25 6 13 15 22 19
19 5 -3 9 11 9 31 0 34 -2 37 -24 31 -14 -3 -37 -1 -52 4 -28 11 -47 4 -26 -9
10 -6 10 -11 -3 -21 -10 -8 -15 -9 -15 -1 0 6 -5 11 -11 11 -6 0 -9 -6 -6 -14
3 -8 -2 -20 -10 -28 -15 -11 -16 -11 -10 6 6 14 4 17 -8 12 -8 -3 -22 -3 -30
1 -14 5 -14 8 1 24 9 11 23 19 31 19 7 0 16 7 19 15 4 8 17 15 30 15 13 0 24
2 24 5 0 11 -34 44 -42 39 -4 -3 -8 -2 -8 2 0 14 66 64 85 64 14 0 16 3 8 11
-7 7 -38 12 -71 13 -54 1 -62 -2 -105 -37 -26 -21 -52 -35 -57 -32 -7 4 -9 -2
-5 -18 4 -16 0 -35 -10 -51 -17 -26 -45 -35 -45 -15 0 5 5 7 10 4 6 -4 10 5
10 19 0 14 -4 26 -10 26 -5 0 -10 -7 -10 -16 0 -27 -18 -5 -24 31 -4 19 -11
35 -16 35 -4 0 -11 13 -15 29 -3 16 -13 35 -21 42 -12 10 -13 9 -8 -7 4 -14 1
-13 -15 6 -11 14 -21 30 -21 37 0 6 -5 15 -12 19 -7 5 -8 3 -3 -7 5 -8 -1 -5
-13 5 -12 11 -22 25 -22 32 0 7 36 -7 88 -37 48 -27 91 -49 95 -49 13 0 -2 74
-29 142 -13 34 -23 63 -21 64 1 1 44 -30 96 -69 51 -40 102 -78 112 -85 17
-13 18 -10 16 67 -1 47 -6 80 -12 78 -9 -3 -50 101 -43 109 2 2 59 -49 126
-114 l122 -117 11 32 c6 18 8 41 5 50 -6 20 -36 230 -36 247 1 6 12 -11 26
-38 14 -27 42 -70 62 -97 21 -26 55 -73 76 -103 27 -38 42 -52 47 -44 13 24
28 133 30 218 2 78 7 116 14 108 2 -2 11 -69 19 -149z m-394 -334 c0 -16 -71
-65 -109 -75 -71 -18 -69 0 6 49 40 26 103 42 103 26z m-40 -91 c0 -4 -21 -25
-47 -47 -36 -33 -53 -41 -77 -38 -17 1 -33 5 -35 7 -9 9 55 65 84 73 36 11 75
13 75 5z m589 -46 c14 -7 32 -21 40 -31 7 -10 19 -16 26 -13 7 2 18 -1 24 -7
13 -13 15 -41 2 -33 -5 3 -12 -1 -15 -10 -3 -8 -2 -12 4 -9 6 3 10 0 11 -7 0
-10 2 -10 6 0 7 17 23 15 23 -3 0 -8 -5 -15 -11 -15 -6 0 -9 -6 -6 -12 2 -7
12 -13 22 -13 12 0 21 -10 26 -28 4 -15 3 -27 -2 -27 -5 0 -9 -6 -9 -14 0 -8
-7 -16 -15 -20 -9 -3 -15 0 -15 8 0 8 -18 23 -40 34 -22 11 -40 17 -40 14 0
-4 16 -22 35 -42 52 -53 93 -210 55 -210 -5 0 -10 15 -10 33 0 56 -27 128 -61
163 -22 23 -30 39 -26 54 4 17 2 21 -16 18 -12 -2 -27 3 -33 11 -9 11 -15 11
-33 1 -13 -6 -32 -10 -42 -7 -10 3 -19 2 -19 -1 0 -4 -16 -8 -35 -9 -42 -3
-168 -60 -161 -72 3 -5 -1 -11 -8 -14 -8 -3 -16 -1 -19 6 -2 7 -10 1 -17 -13
-7 -14 -31 -48 -52 -76 -21 -28 -38 -54 -38 -57 0 -10 -33 -47 -42 -47 -4 0
-4 16 -1 37 4 23 2 34 -4 30 -6 -4 -10 8 -11 28 -1 19 3 35 8 35 6 0 10 5 10
11 0 5 -4 7 -10 4 -6 -4 -10 8 -10 29 0 19 4 37 8 40 5 3 7 23 5 44 -3 45 8
58 56 67 19 3 45 15 59 25 28 23 48 26 54 8 3 -7 7 -5 11 6 5 11 3 15 -5 10
-7 -4 -8 -3 -4 4 4 7 15 12 24 12 10 0 27 6 38 14 11 8 37 17 57 21 21 4 40
11 43 16 3 5 17 9 32 9 15 0 33 4 40 9 17 11 59 6 91 -11z m-479 -44 c0 -9
-10 -30 -22 -46 -17 -24 -23 -54 -31 -141 -11 -131 5 -239 53 -343 20 -45 25
-66 17 -68 -7 -2 -51 -14 -99 -26 -49 -13 -88 -27 -88 -32 0 -5 8 -7 18 -4 91
28 176 47 188 42 24 -9 16 -24 -18 -31 -59 -13 -187 -85 -150 -85 4 0 39 15
78 34 78 38 124 51 124 36 0 -5 -4 -10 -9 -10 -5 0 -49 -27 -98 -60 -48 -33
-92 -62 -98 -64 -5 -2 -7 -7 -3 -11 4 -4 52 22 105 59 54 36 104 66 111 66 20
0 14 -18 -10 -31 -26 -14 -186 -148 -207 -173 -30 -36 -2 -22 49 25 57 51 181
149 190 149 3 0 22 -24 43 -53 40 -55 142 -167 153 -167 12 0 -27 51 -67 87
-22 20 -37 38 -34 41 2 3 30 -11 60 -32 30 -20 55 -32 55 -27 0 6 -10 17 -22
25 -22 15 -21 16 25 16 68 0 58 15 -12 17 -32 0 -72 8 -90 17 -33 18 -91 73
-91 87 0 12 14 11 25 0 6 -5 42 -25 81 -45 69 -35 75 -36 183 -36 l112 0 40
38 c29 26 47 56 62 102 21 60 25 65 57 71 121 23 363 114 465 176 83 51 161
120 191 171 13 23 29 42 34 42 6 0 35 23 65 50 61 56 80 61 173 45 44 -8 40
-19 -12 -33 -27 -7 -59 -26 -80 -47 -34 -33 -36 -34 -46 -15 -6 11 -15 20 -21
20 -6 0 -7 -4 -4 -10 3 -5 -1 -10 -11 -10 -29 0 1 -25 48 -40 33 -11 38 -15
22 -18 -14 -2 -24 -13 -27 -30 -7 -34 -53 -62 -101 -62 -20 0 -36 -5 -36 -11
0 -8 17 -10 56 -6 61 6 104 35 104 69 0 16 5 18 38 12 37 -6 72 -37 107 -97
l17 -29 -40 23 -41 24 -38 -32 c-21 -18 -62 -46 -91 -63 -37 -22 -63 -47 -89
-88 -55 -87 -192 -230 -232 -243 -74 -25 -286 -77 -294 -72 -4 2 -5 31 -1 64
4 38 3 59 -4 59 -12 0 -20 -49 -18 -112 1 -27 0 -48 -1 -48 -1 0 -16 20 -33
45 -17 25 -35 45 -41 45 -5 0 3 -19 19 -42 16 -24 45 -81 65 -127 45 -102 79
-162 122 -210 17 -20 49 -65 69 -100 36 -63 37 -67 36 -155 -2 -113 -2 -112
10 -100 6 6 10 88 10 209 1 172 3 204 19 241 39 88 91 92 226 21 64 -35 86
-53 117 -97 44 -64 63 -75 55 -34 -21 110 -26 369 -8 403 8 14 13 51 12 83 -1
68 15 142 35 159 12 10 14 1 14 -55 0 -36 3 -66 8 -66 4 0 20 18 35 40 34 49
61 57 38 12 -14 -28 -21 -82 -11 -82 5 0 16 12 24 28 8 15 28 35 46 45 l31 19
-20 -41 c-22 -42 -28 -91 -11 -91 6 0 28 18 50 40 23 23 46 38 52 34 8 -5 6
-10 -4 -18 -20 -15 -38 -50 -38 -75 0 -17 -6 -21 -36 -21 -21 0 -47 8 -61 20
-47 37 -103 22 -122 -31 -14 -41 -14 -290 0 -360 6 -30 12 -134 13 -231 l1
-177 -31 30 c-17 16 -50 56 -75 88 -32 43 -58 66 -99 85 -30 15 -79 45 -109
67 -29 22 -55 38 -57 36 -7 -7 86 -87 129 -111 l39 -21 -6 -55 c-7 -73 -88
-236 -157 -313 -43 -48 -113 -97 -140 -97 -11 0 -184 132 -181 139 5 10 -60
71 -76 71 -8 0 6 -16 32 -36 26 -20 45 -38 42 -41 -6 -6 -109 61 -126 82 -7 8
-16 12 -21 9 -5 -3 -18 0 -29 6 -12 6 -26 9 -33 7 -7 -2 7 -14 31 -26 155 -80
386 -259 396 -309 5 -24 -3 -181 -20 -399 l-7 -82 -38 -6 c-54 -9 -38 -25 25
-25 52 0 126 -21 275 -79 42 -17 113 -37 159 -45 45 -9 99 -25 120 -36 l37
-20 -55 1 c-30 1 -83 8 -118 15 -74 16 -95 17 -87 5 3 -5 31 -15 63 -22 59
-12 102 -33 102 -49 0 -5 -17 -3 -38 4 -21 8 -51 12 -65 9 -16 -3 -37 1 -52
11 -14 9 -25 12 -25 7 0 -6 -7 -8 -15 -5 -8 4 -15 2 -15 -3 0 -5 26 -17 58
-26 33 -9 65 -24 73 -33 13 -16 12 -17 -6 -9 -11 5 -51 10 -90 11 -38 1 -72 2
-75 3 -15 6 -83 11 -78 6 4 -4 33 -20 65 -36 l58 -29 -75 6 c-41 3 -82 6 -90
6 -8 0 -57 11 -109 25 -92 24 -98 25 -220 13 -145 -14 -187 -12 -184 10 11 71
47 198 68 240 28 55 40 113 49 243 6 70 4 83 -22 140 -22 48 -44 76 -92 118
-101 86 -138 127 -199 218 -96 143 -143 229 -152 276 -6 32 -23 63 -61 108
-29 35 -87 105 -128 157 -41 52 -104 126 -140 165 -36 38 -80 86 -98 106 -23
25 -35 51 -42 90 -15 84 -37 185 -66 299 -33 134 -63 289 -71 361 -5 50 -3 59
18 78 14 12 36 21 55 21 40 0 53 -16 19 -24 -13 -3 -29 -16 -36 -27 -6 -12 -7
-20 -2 -17 4 2 20 10 36 18 25 12 30 11 57 -8 50 -38 56 -23 10 28 -22 25 -27
36 -18 42 18 11 66 10 73 -2 4 -6 11 -8 16 -4 6 4 3 14 -7 25 -20 22 -22 20
36 53 53 30 60 31 60 10z m-161 -36 c32 -20 26 -26 -36 -33 -32 -3 -70 -8 -85
-10 -24 -4 -28 -1 -28 20 0 13 8 29 18 35 21 13 103 6 131 -12z m571 -123
c-33 -35 -68 -46 -178 -58 -36 -4 -41 -3 -31 9 21 25 113 62 172 69 31 3 57
11 57 17 0 6 3 8 7 5 4 -4 -8 -23 -27 -42z m60 0 c0 -22 -44 -118 -63 -137
-16 -15 -13 -18 31 -34 52 -19 82 -41 82 -59 0 -7 -12 -24 -27 -39 -23 -23
-33 -26 -62 -21 -31 6 -33 5 -22 -9 19 -22 51 -19 82 7 65 54 57 95 -24 124
-27 10 -44 19 -38 21 6 2 11 12 11 23 0 27 15 24 28 -6 14 -30 28 -32 42 -4
12 21 3 40 -28 64 -15 12 -5 48 12 42 18 -6 55 -67 65 -106 5 -20 14 -61 19
-91 10 -52 9 -57 -20 -102 -51 -81 -119 -105 -230 -79 -28 7 -40 5 -49 -5 -14
-17 -3 -32 12 -17 7 7 27 7 62 1 101 -19 169 9 218 89 l23 37 7 -26 c16 -61
-32 -191 -80 -214 -40 -20 -185 -28 -237 -14 -53 15 -79 45 -122 140 -26 57
-31 81 -36 188 -8 144 -15 135 125 146 102 7 150 25 179 66 23 32 40 39 40 15z
m1163 -6 c47 -24 77 -48 77 -61 0 -5 -15 0 -34 11 -32 20 -35 20 -80 5 -26 -9
-58 -13 -72 -10 -22 6 -24 9 -12 23 11 14 67 53 76 53 1 0 22 -10 45 -21z m37
-91 c11 -18 20 -36 20 -39 0 -4 -21 4 -47 17 -25 13 -56 24 -67 24 -43 0 5 23
62 29 7 0 21 -14 32 -31z m-1570 -105 l0 -47 -22 21 c-22 22 -22 22 -2 44 10
13 13 19 5 14 -10 -5 -12 -4 -7 3 15 25 26 10 26 -35z m-40 -33 c0 -5 11 -33
24 -62 13 -29 34 -78 47 -108 30 -71 72 -130 112 -155 27 -17 49 -20 142 -20
129 1 159 12 192 70 51 91 57 144 28 243 -5 14 -3 22 4 22 7 0 10 -4 7 -9 -4
-5 -1 -11 4 -13 6 -2 13 -28 16 -58 8 -74 -32 -189 -85 -243 l-36 -39 -120 4
c-114 4 -123 5 -177 37 -32 18 -61 37 -64 42 -3 5 -16 6 -30 3 -28 -7 -31 3
-6 23 15 12 14 13 -13 6 -28 -6 -29 -5 -15 12 14 17 13 18 -2 12 -10 -3 -20
-2 -23 3 -4 6 8 10 25 10 20 0 29 4 24 11 -3 6 -17 8 -30 5 -20 -5 -27 0 -47
41 -52 105 -52 109 -21 143 30 31 44 37 44 20z m1578 -384 c7 -4 11 -13 9 -19
-2 -7 2 -20 11 -29 18 -22 35 -174 23 -216 -5 -17 -7 -33 -3 -36 14 -14 21 -3
27 42 3 26 8 58 11 70 4 18 1 22 -8 16 -11 -6 -11 -5 0 8 9 11 10 23 2 42 -5
14 -7 26 -5 26 3 0 -2 16 -10 36 -19 46 -19 44 10 44 17 0 32 -11 50 -37 34
-50 34 -128 1 -226 -35 -103 -47 -180 -47 -318 0 -67 -5 -131 -11 -144 -12
-27 -75 -58 -109 -53 l-24 3 -1 180 c-1 136 -5 194 -17 237 -30 101 -15 335
23 369 19 17 46 19 68 5z m-1141 -1122 c8 -21 -13 -42 -28 -27 -13 13 -5 43
11 43 6 0 13 -7 17 -16z m58 -276 c7 -18 18 -58 23 -88 6 -30 14 -63 17 -72 4
-11 3 -18 -4 -18 -6 0 -14 18 -17 40 -4 22 -10 40 -15 40 -5 0 -6 7 -2 16 3 9
0 20 -8 25 -12 7 -12 9 1 9 13 1 13 2 0 13 -15 12 -27 67 -15 67 3 0 12 -15
20 -32z m-1085 -203 c0 -16 -38 -45 -60 -45 -24 0 -24 1 8 16 17 9 32 20 32
25 0 5 5 9 10 9 6 0 10 -2 10 -5z"/>
<path d="M1330 3395 c0 -27 22 -84 37 -96 17 -13 17 -12 0 13 -9 15 -17 35
-17 45 0 19 -20 56 -20 38z"/>
<path d="M1355 3169 c-4 -6 -4 -13 -1 -17 12 -11 54 -13 61 -2 3 5 -3 10 -14
10 -12 0 -21 5 -21 10 0 13 -17 13 -25 -1z"/>
<path d="M1043 2998 c-1 -11 -7 -24 -13 -28 -7 -4 -8 -14 -1 -31 10 -25 11
-23 17 24 1 16 8 35 15 43 9 11 8 14 -3 14 -7 0 -14 -10 -15 -22z"/>
<path d="M1374 2288 c2 -13 7 -31 11 -40 8 -21 -14 -25 -32 -7 -20 20 -32 5
-17 -21 l15 -25 -7 24 c-6 23 -6 23 17 7 49 -34 72 -4 38 50 -24 40 -31 43
-25 12z"/>
<path d="M1577 2283 c-24 -23 15 -103 51 -103 16 0 34 38 26 53 -24 43 -61 67
-77 50z m47 -46 c6 -9 7 -19 3 -23 -9 -9 -37 15 -37 33 0 18 20 12 34 -10z"/>
<path d="M1695 2099 c-11 -17 4 -75 23 -91 9 -8 35 -15 57 -15 22 0 32 2 23 4
-12 3 -18 14 -18 32 0 48 -66 102 -85 70z m65 -70 c0 -5 -7 -9 -15 -9 -17 0
-35 30 -35 57 1 15 5 13 25 -10 14 -15 25 -32 25 -38z"/>
<path d="M1817 1903 c-12 -11 -8 -53 9 -84 11 -22 21 -29 37 -27 33 5 34 48 2
87 -27 32 -36 36 -48 24z m53 -74 c0 -16 -19 -9 -30 10 -17 33 -11 48 10 22
11 -13 20 -27 20 -32z"/>
<path d="M2220 1816 c0 -14 59 -103 78 -118 15 -12 16 -11 4 4 -8 9 -11 22 -7
28 4 6 2 9 -4 8 -6 -2 -24 17 -41 42 -16 25 -30 41 -30 36z"/>
<path d="M1910 1670 c0 -42 20 -80 42 -80 28 0 33 26 13 71 -22 49 -55 55 -55
9z"/>
<path d="M1954 1388 c15 -20 35 -39 44 -42 10 -3 8 1 -5 10 -23 17 -33 41 -11
28 7 -5 8 -3 4 5 -5 7 -11 10 -14 7 -3 -3 -14 2 -26 11 -13 12 -10 5 8 -19z"/>
<path d="M1185 2820 c3 -5 17 -10 31 -10 21 0 24 -5 24 -35 0 -19 5 -35 10
-35 6 0 10 14 10 30 0 17 5 30 10 30 6 0 10 -14 10 -30 0 -32 23 -51 41 -33
12 12 30 85 24 92 -3 2 -10 -1 -18 -7 -8 -7 -26 -8 -52 -2 -53 13 -98 12 -90
0z"/>
<path d="M2594 1907 c3 -10 6 -24 6 -31 0 -7 10 -24 21 -37 l21 -24 -7 24 c-4
14 -16 38 -27 55 -11 17 -17 23 -14 13z"/>
<path d="M2646 1708 c-16 -32 -33 -58 -38 -58 -4 0 -8 -6 -8 -12 0 -7 14 3 31
22 17 19 28 27 25 17 -4 -11 -2 -16 5 -12 5 4 7 16 4 26 -4 11 -1 26 5 34 6 8
10 20 8 27 -2 7 -16 -13 -32 -44z"/>
<path d="M1370 981 c0 -4 -11 -20 -25 -35 -25 -27 -34 -53 -15 -41 6 3 10 0
10 -7 0 -8 9 -14 20 -15 24 -2 27 12 4 21 -14 5 -13 10 5 40 24 37 26 46 11
46 -5 0 -10 -4 -10 -9z"/>
<path d="M1385 940 c-7 -21 0 -40 14 -40 5 0 11 11 13 24 6 30 -18 44 -27 16z"/>
<path d="M1178 774 c-15 -8 -39 -34 -53 -59 -15 -24 -35 -47 -46 -50 -11 -4
-18 -9 -16 -12 3 -2 15 1 28 7 19 11 21 10 16 -4 -4 -9 -3 -16 2 -16 16 0 33
30 27 45 -3 9 -2 13 4 10 9 -5 15 16 11 38 -1 5 2 6 7 3 8 -5 29 14 46 42 9
15 7 15 -26 -4z"/>
<path d="M1475 776 c-6 -6 -17 -30 -24 -54 -11 -32 -12 -45 -3 -54 16 -16 15
-28 -3 -28 -8 0 -15 -8 -15 -17 0 -16 2 -15 20 2 12 13 20 36 21 65 2 25 8 50
15 55 7 6 9 17 5 26 -4 13 -9 14 -16 5z"/>
<path d="M1203 732 c-13 -4 -32 -27 -46 -54 -13 -27 -22 -48 -20 -48 12 0 72
48 67 53 -4 4 1 18 10 32 9 14 15 25 14 24 -2 -1 -13 -4 -25 -7z"/>
<path d="M970 699 c-19 -11 -26 -17 -15 -14 11 4 32 9 48 12 15 3 27 9 27 14
0 14 -22 10 -60 -12z"/>
<path d="M1025 681 c-22 -15 -46 -26 -53 -23 -14 4 -15 -7 -3 -27 8 -12 13
-12 35 3 15 9 24 21 21 26 -3 6 0 7 8 4 9 -3 16 3 20 15 3 12 10 21 17 21 6 0
8 -5 4 -12 -4 -7 -3 -8 5 -4 11 7 6 26 -7 26 -4 0 -25 -13 -47 -29z"/>
<path d="M444 655 c-11 -27 1 -30 25 -7 24 22 24 22 2 22 -12 0 -24 -7 -27
-15z"/>
<path d="M1252 638 c-23 -18 -41 -38 -41 -45 -1 -6 -9 -20 -18 -29 -17 -17
-17 -18 0 -11 10 4 21 7 23 7 2 0 4 5 4 12 0 7 19 32 42 55 50 51 46 55 -10
11z"/>
<path d="M607 640 c-9 -11 -13 -20 -9 -20 15 0 62 25 62 33 0 15 -36 6 -53
-13z"/>
<path d="M1175 631 c-36 -17 -81 -51 -68 -51 5 0 15 6 22 13 11 10 14 10 18 0
7 -21 27 -15 56 15 15 15 27 30 27 33 0 10 -24 5 -55 -10z"/>
<path d="M661 609 c-13 -11 -21 -23 -17 -26 4 -4 19 5 34 20 31 31 19 36 -17
6z"/>
<path d="M987 603 c-16 -8 -27 -17 -24 -20 3 -2 14 0 25 6 15 8 22 8 25 -2 2
-6 8 -9 12 -5 4 3 3 13 -2 21 -7 14 -11 14 -36 0z"/>
<path d="M411 581 c-8 -15 -7 -20 8 -24 10 -2 26 0 35 5 18 10 22 38 5 38 -5
0 -7 -5 -3 -11 7 -13 -15 -31 -29 -22 -4 2 -3 11 4 19 8 10 8 14 1 14 -6 0
-16 -9 -21 -19z"/>
<path d="M500 550 c-21 -21 -27 -50 -10 -50 6 0 10 4 10 8 0 4 14 13 31 19 27
11 30 15 19 28 -17 20 -26 19 -50 -5z"/>
<path d="M975 560 c-3 -5 -5 -10 -3 -11 29 -7 47 -8 68 -3 23 5 23 6 6 16 -14
8 -21 7 -28 -3 -7 -11 -11 -11 -15 -1 -6 15 -19 16 -28 2z"/>
<path d="M1376 546 c-7 -29 -2 -29 24 -1 22 23 22 24 2 22 -12 0 -23 -10 -26
-21z"/>
<path d="M975 520 c-4 -6 -10 -8 -13 -6 -4 2 -12 -7 -19 -20 -15 -32 0 -31 21
1 9 14 20 24 24 21 5 -3 14 -1 22 5 12 7 10 9 -7 9 -12 0 -25 -5 -28 -10z"/>
<path d="M1211 491 c-22 -23 -22 -24 -3 -19 12 3 23 1 25 -6 8 -20 13 -2 8 24
l-6 25 -24 -24z"/>
</g>
</svg>
