<?xml version="1.0" encoding="UTF-8"?><svg id="Layer_1" xmlns="http://www.w3.org/2000/svg" width="20" height="20" xmlns:xlink="http://www.w3.org/1999/xlink" viewBox="0 0 20 20"><defs><clipPath id="clippath"><rect x="2.2604" y="3.3188" width="15.4792" height="13.5469" fill="none"/></clipPath></defs><g clip-path="url(#clippath)"><path d="M2.3125,6.4333c1.7969-.8073,3.651-1.5104,5.4635-2.2969.7187-.2135,1.4323-.8177,2.1979-.6927,2.5833.4792,5.1875.8125,7.7552,1.3542-.0052,2.3802-.2708,4.7552-.3333,7.1406-.0781.849-.0781,1.6927-.1458,2.5417-.0521.224.1406.9531-.1875.9219-3.2292.2396-6.4688.4687-9.6979.7448-2.4219.0625-1.3333.7344-2.599-2.474-.6458-1.8281-1.2812-3.6615-1.9271-5.4896-.1719-.474-.3385-.9479-.5104-1.4219-.0365-.1042-.0573-.2031-.0156-.3281ZM10.9375,10.074c-.5-.1198-.4792-.7344-.776-1.0729-.2448-.3385-.5104-.6719-.7083-1.0417-.1458-.224-.0781-.4479,0-.6875.0521-.5208-.1354-1.0312-.1615-1.5521-.1146-.6562-.8854-.4219-1.2917-.1198-.401.2917.0208.7448.1927,1.0417.2865.5833.8594.9115.599,1.6146-.2292.6667-.349,1.4271-.8437,1.9635-.8125.5365-1.8229-1.2187-2.2448-1.7552-.1719-.1771-.1094-.4375-.1667-.6562-.4687-2.0677-1.8177-1.3229-1.4896-.5.151.4115.4792.7135.6615,1.1042.0833.2135.276.349.3958.5417.2604.5885.3073,1.2448.6094,1.8229.2396.6406.2135,1.3437.4583,1.9792.2917.6667.1354,1.4219.1562,2.1302-.0312.2656.1771.5365.4635.4323.5625-.3229,1.0313-.0729,1.599-.2083.2552-.0833.5156-.1719.776-.2552,1.0156-.3802,1.474.3854,2.4323-.2917.1719-.0937.349-.1354.5521-.1146.3854.0521.7812-.0781,1.1562.026.7396.2135,1.474.1146,2.2135.026.2865.0208.3385-.2708.2083-.474-.1771-.4323-.1719-.9115-.1406-1.3698.0833-.4635-.1094-.9271.0052-1.3854.0365-.4271.349-1.0781,0-1.4167.0312-1.1823.7708-2.1875.8437-3.3646.026-1.1042-1.2292-.776-1.3333.0937-.0365.4115-.1667.8437-.0156,1.25.0885.3906.1771.8906-.0208,1.2552-.401.5-.9896,1.0677-1.6823.974-.2656-.0208-.2656-.2865-.3229-.4896-.1146-.4948-.5104-.8854-.4844-1.4167-.026-.3437.1615-.6354.3021-.9323.2344-.4844.3385-1.0573.25-1.5938-.1302-.651-1.2187-.5-1.3177.0938-.0573.6615.2448,1.2969.3073,1.9479.0521.3229-.224.5313-.3125.8125-.2552.526-.4219,1.2083-.8698,1.5885Z" fill="#c7a82d"/></g><path d="M10.9375,10.074c.5677-.5104.6667-1.3542,1.0781-1.9792.2969-.6042-.1927-1.4167-.2135-2.0729-.1094-1.0729,1.625-1.1927,1.349.2031-.0521,1.0208-1.0156,1.7604-.3229,2.776.276.2865.151,1.0052.5573,1.0625.6927.099,1.2812-.474,1.6823-.974.1979-.3646.1094-.8646.0208-1.2552-.151-.4062-.0208-.8385.0156-1.25.1042-.8646,1.3594-1.1979,1.3333-.0885-.0729,1.1719-.8125,2.1771-.8437,3.3594.3542.3385.0365.9896,0,1.4167-.1146.4583.0781.9219-.0052,1.3854-.0312.4583-.0365.9375.1406,1.3698.1198.2031.0885.5-.2083.474-.7396.0885-1.474.1875-2.2135-.026-.375-.1042-.7708.026-1.1562-.026-.2031-.0156-.3802.0208-.5521.1146-.9583.6771-1.4167-.0885-2.4323.2969-.2604.0781-.5208.1667-.776.25-.5677.1354-1.0417-.1146-1.599.2083-.2865.1042-.4948-.1667-.4635-.4323-.0208-.7083.1354-1.4635-.1562-2.1302-.2448-.6354-.2187-1.3385-.4583-1.9792-.3021-.5781-.349-1.2344-.6094-1.8229-.1198-.1875-.3125-.3281-.3958-.5417-.1823-.3906-.5104-.6927-.6615-1.1042-.3281-.8229,1.0208-1.5625,1.4896.5.0573.2188-.0052.4792.1667.6562.4167.5313,1.4375,2.2969,2.2448,1.7552.4948-.5365.6146-1.2969.8437-1.9635.2604-.7031-.3125-1.0365-.599-1.6146-.1719-.2969-.5937-.75-.1927-1.0417.4063-.2969,1.1771-.5417,1.2917.1198.0208.5208.2135,1.0312.1615,1.5521-.0781.2396-.1458.4635,0,.6875.1979.3698.4635.7031.7083,1.0417.2969.3385.276.9531.776,1.0729ZM6.7396,13.4385c.526-.2135,1.0729-.3437,1.6354-.3802.474,0,.8646-.375,1.349-.25.6615.0729,1.3281.1198,2,.1406.4427-.026.8802.0052,1.3281.0573.401-.0156.8229.0312,1.1979-.1354.1979-.1094.4167-.0833.6198-.1042-.0208-.4948.0729-.9948.1302-1.4896-.4479-.4271-.0469-.9896.0677-1.4948-.6875,1.1823-.9323.5833-2.0104.8229-.7969.1302-.5417-1.2656-.7917-1.7396-.2917.4167-.6406.7552-.8854,1.2031-.1354.2448-.3125.5156-.625.349-1.0156-.349-1.0677-1.3229-1.599-2.0521-.151.8229-.7656,3.0417-1.9479,2.2865-.4375-.3177-.7604-.8281-1.3021-.9531.1354.6042.2552,1.2135.5469,1.7604.1771.3021.2448.6302.1875.9792-.0521.3385-.0833.6823.099,1ZM7.0729,14.4594c.1458-.0104.2708-.0417.4062-.0208.5573.1094,1.0729-.2344,1.6406-.1823.3281.0052.6615-.099.9844.0156.1667.0521.3385.0521.5104,0,.2812-.0781.5625-.1198.8542-.1198.4323.0469.7865-.2396,1.2031-.2656.849-.1302,1.7187-.224,2.5625.0208-.0885-.151-.1094-.3021-.2031-.4167-1.2344.3437-2.4635-.0208-3.6875-.2135-.7604-.0677-1.5052.3594-2.276.25-.75-.1042-1.401.4583-2.1615.3698.0156.2083.1562.3594.1667.5625ZM4.6667,7.2302c.1615.1354.1979.3021.349.4635-.0521-.2188-.1406-.3854-.349-.4635ZM15.7656,7.0635q.1094-.3021.0677-.4219c-.0521.125-.0885.25-.0677.4219Z" fill="#200d0d"/><path d="M6.7396,13.4385c-.1823-.3177-.151-.6615-.099-1,.0573-.349-.0104-.6771-.1875-.9792-.2917-.5469-.4115-1.1562-.5469-1.7604.5417.125.8646.6354,1.3021.9531,1.1823.7552,1.7969-1.4635,1.9479-2.2865.5365.7344.5781,1.6979,1.599,2.0521.3125.1667.4896-.1042.625-.349.2396-.4479.5937-.7865.8854-1.2031.25.4687-.0052,1.8698.7917,1.7396,1.0729-.2396,1.3281.3594,2.0104-.8229-.1146.5052-.5156,1.0677-.0677,1.4948-.0573.4948-.151.9948-.1302,1.4896-.2083.0208-.4219-.0052-.6198.1042-.375.1667-.7969.1198-1.1979.1354-.4479-.0521-.8854-.0833-1.3281-.0573-.6719-.0208-1.3385-.0677-2-.1406-.4844-.125-.875.25-1.349.25-.5625.0365-1.1094.1667-1.6354.3802Z" fill="#c7a82d"/><path d="M7.0729,14.4594c-.0104-.2031-.151-.3542-.1667-.5625.7604.0937,1.4115-.474,2.1615-.3698.776.1094,1.5156-.3177,2.276-.25,1.224.1927,2.4531.5573,3.6875.2135.0937.1146.1146.2656.2031.4167-.8437-.2396-1.7135-.151-2.5625-.0208-.4167.026-.7708.3125-1.2031.2656-.2917,0-.5729.0417-.8542.1198-.1719.0521-.3438.0521-.5104,0-.3229-.1146-.6562-.0104-.9844-.0156-.5677-.0521-1.0833.2917-1.6406.1823-.1354-.0208-.2604.0104-.4062.0208Z" fill="#c7a82d"/><path d="M4.6667,7.2302c.2083.0781.2969.2448.349.4635-.151-.1615-.1875-.3281-.349-.4635Z" fill="#c7a82d"/><path d="M15.7656,7.0635c-.0208-.1719.0156-.2969.0677-.4219q.0417.1198-.0677.4219Z" fill="#c7a82d"/></svg>