<?xml version="1.0" encoding="UTF-8"?><svg id="Layer_1" xmlns="http://www.w3.org/2000/svg" width="32" height="32" xmlns:xlink="http://www.w3.org/1999/xlink" viewBox="0 0 32 32"><defs><clipPath id="clippath"><rect x="-.3163" y="-.1469" width="32.5358" height="32.2407" fill="none"/></clipPath><clipPath id="clippath-1"><rect x="15.9516" y="21.9817" width="16.2679" height="7.2533" fill="none"/></clipPath><clipPath id="clippath-2"><rect x="-.3163" y="21.9817" width="16.2679" height="7.2533" fill="none"/></clipPath><clipPath id="clippath-3"><rect x="-.3163" y="6.0219" width="16.2679" height="7.1579" fill="none"/></clipPath><clipPath id="clippath-4"><rect x="15.9516" y="6.0219" width="16.2679" height="7.1579" fill="none"/></clipPath></defs><g clip-path="url(#clippath)"><path d="M-.3163-.1469h32.5358v32.2407H-.3163V-.1469Z" fill="#fff"/><path d="M-.3163-.1469h32.5358v32.2407H-.3163V-.1469Z" fill="#255575"/></g><g clip-path="url(#clippath-1)"><path d="M26.7867,22.3201c-.1532.0304-.2889.013-.4422.0217-.1488.0087-.2802.0781-.4246.1041-.3108.0564-.6304.1952-.9281.308-.2933.1128-.5604.2516-.7836.4685-.1007.1041-.2058.1605-.324.2343-.127.0694-.2276.2082-.3283.3123-.1138.1085-.2101.2039-.2758.347-.035.0781-.0657.1562-.1094.2299.0088.026.0175.0564.0131.0824-.0044.0521-.0263.0954-.0525.1388-.0569.0911-.1488.1388-.2058.2169-.07.0954-.0876.2126-.1532.308-.07.1041-.1357.2126-.2101.3123-.127.1735-.2189.3601-.3721.5206l-.0657.0651c-.1401.2126-.2583.4381-.4159.6464-.0963.1258-.2058.2429-.3108.3687-.0788.0998-.1488.2082-.232.3037-.1926.2169-.4028.4381-.6216.629-.2233.2039-.4816.3774-.7486.5249-.1094.0564-.2101.1041-.3327.1128-.1576.0087-.2627.0824-.4071.1388-.1226.0521-.2408.0347-.3677.0651-.1445.0304-.2933.0651-.4422.0737-.1357.0043-.2583-.0304-.3896-.0694-.1313-.0434-.267-.0434-.4071-.0564-.1576-.0174-.3152-.0217-.4728-.039-.1401-.013-.2802.0174-.4203-.0304-.1313-.0477-.2233-.1605-.324-.2603-.07-.0737-.1445-.1518-.1926-.2429-.0788-.1388.2583-.4512.3458-.2863.0744.1301.2101.2169.3064.3297.0569.0651.0876.1518.1795.1779.0744.0217.162,0,.2364.0174.1576.0304.3064.0868.464.1041.1576.0217.3064.0217.4597.0737.1882.0607.3546.0694.5472.0217.1532-.0347.3064-.0651.4553-.0998.1576-.039.2846-.1692.4422-.2082.0832-.0174.162,0,.2408-.039.07-.0347.1357-.0824.2014-.1258.4203-.2733.7486-.6334,1.0594-1.0195.0788-.1518.1094-.3254.2145-.4729.0657-.0911.127-.1865.197-.2733.035-.039.07-.0694.1051-.0998.0044-.013.0088-.026.0175-.039.0482-.0911.07-.1648.1488-.2429.0744-.0694.1664-.1345.2627-.1822.0088-.0043.0131-.0087.0219-.013.0131-.013.0263-.0304.035-.0434.0876-.1041.1882-.1952.2627-.3123.0919-.1475.1751-.2993.2539-.4555.0175-.0434.0394-.0911.0613-.1388.0482-.0911.1051-.1735.1751-.2516.0044-.0087.0131-.013.0175-.0174.0525-.0651.1138-.1301.162-.1996.0744-.1085.1094-.2429.1751-.3557.1401-.2429.3721-.4251.5604-.6203.1051-.1085.2145-.1605.3371-.2386.1051-.0694.1795-.1779.2758-.2559.2189-.1822.5078-.3123.7705-.4165.1576-.0564.3152-.1085.4728-.1648.127-.039.2408-.1171.3677-.1475.0919-.0217.1839-.0217.2758-.0477.0744-.0174.1445-.0434.2189-.0607.1401-.026.2758,0,.4159-.013.1488-.013.2889-.0564.4378-.0564.1226,0,.2495.0087.3721.0217.1445.0174.267.0087.3984.0694.127.0651.2539.1171.3852.1735.0657.0304.1357.0564.197.0954.0438.0304.0657.0607.1138.0737.0525.013.1051-.0043.1576.0087s.0832.039.1313.0651c.1182.0651.2452.0694.3634.1475.1138.0781.2408.1605.3502.2473.2101.1648.3765.3948.5647.59.127.1301-.2145.4859-.3283.3601-.2145-.2386-.4203-.4729-.6523-.6984-.1182-.1128-.2101-.2386-.3677-.3037-.07-.026-.1138-.0477-.1751-.0868-.0832-.0521-.1138-.0304-.2058-.0347-.1226-.0087-.2408-.1128-.3546-.1605-.1401-.0651-.2846-.1345-.429-.1952-.1182-.0521-.3064-.0477-.4334-.0564-.1795-.0174-.3458-.0087-.521.0217ZM32.1101,28.3327c-.1401-.0304-.2714.0217-.4115.039-.1532.0174-.2977-.0043-.4422.0521-.0963.0347-.2101.0043-.3152.0043-.1401,0-.2758-.013-.4159-.0087-.3283.0043-.6698-.0868-.9894-.1475-.1576-.0304-.3064-.0651-.4553-.1128-.1313-.039-.267-.0347-.394-.0824-.127-.0434-.267-.0911-.3896-.1518-.0744-.039-.1051-.0868-.1664-.1388-.0525-.039-.127-.0564-.1664-.1041-.0306-.0347-.0394-.0911-.0657-.1345-.0394-.0521-.0832-.1041-.1226-.1562-.0963-.1215-.1707-.2559-.2758-.3687-.0963-.0998-.1751-.2082-.2233-.3384-.0525-.1475-.0482-.308-.0788-.4598-.0613-.3254-.2627-.5683-.127-.9067.0569-.1475.1488-.2603.2233-.3991.0876-.1562.1488-.3123.2583-.4555.1007-.1345.2101-.269.324-.3904.0919-.0954.1839-.1345.3108-.1475.0919-.013.1576-.0521.2495-.0694.0263-.0043.1007-.0868.0525-.0911-.2977-.026-.5034.0347-.7223.2343-.267.2343-.5253.4338-.6873.7592-.1445.282-.3152.5292-.3283.8546-.0131.347.1751.642.2101.9804.0175.1475.035.2776.1138.4078.0788.1258.1882.2212.2802.3384.1051.1301.2145.282.3108.4208.035.0564.0525.1301.0963.1779.0525.0477.1313.0607.1882.1085.1094.0998.2189.1432.3546.2082.0744.0347.1532.0694.2233.1085s.1226.0434.197.0694c.162.0564.2933.1432.464.1822.197.0434.394.0781.5954.1171.359.0694.7486.1258,1.0944-.0087.07-.0304.1445-.0694.2101-.0911.0832-.0304.2145-.013.3021-.013.2189.0043.4203-.0347.626-.0911.0482-.013.1882-.1735.0919-.1952Z" fill="#a2d9d6"/></g><g clip-path="url(#clippath-2)"><path d="M10.5188,22.3201c-.1532.0304-.2933.013-.4422.0217-.1488.0087-.2802.0781-.4246.1041-.3108.0564-.6304.1952-.9281.308-.2933.1128-.5604.2516-.7836.4685-.1007.1041-.2058.1605-.3283.2343-.1226.0694-.2233.2082-.3283.3123-.1094.1085-.2058.2039-.2714.347-.035.0781-.0657.1562-.1094.2299.0044.026.0175.0564.0131.0824-.0044.0521-.0263.0954-.0525.1388-.0569.0911-.1488.1388-.2058.2169-.07.0954-.0876.2126-.1532.308-.07.1041-.1357.2126-.2101.3123-.1313.1735-.2189.3601-.3721.5206-.0219.0217-.0438.0434-.0657.0651-.1401.2126-.2583.4381-.4159.6464-.0963.1258-.2058.2429-.3108.3687-.0832.0998-.1488.2082-.232.3037-.1926.2169-.4028.4381-.6216.629-.2233.2039-.4816.3774-.7486.5249-.1094.0564-.2101.1041-.3327.1128-.1576.0087-.2627.0824-.4071.1388-.1226.0521-.2408.0347-.3677.0651-.1445.0304-.2933.0651-.4422.0737-.1357.0043-.2583-.0304-.3896-.0694-.1313-.0434-.267-.0434-.4071-.0564-.1576-.0174-.3152-.0217-.4728-.039-.1445-.013-.2802.0174-.4203-.0304-.1357-.0477-.2276-.1605-.324-.2603-.07-.0737-.1445-.1518-.1926-.2429-.0788-.1388.2583-.4512.3458-.2863.0744.1301.2101.2169.3064.3297.0569.0651.0876.1518.1795.1779.0744.0217.162,0,.2364.0174.1576.0304.3064.0868.464.1041.1576.0217.3064.0217.4597.0737.1882.0607.3546.0694.5472.0217.1532-.0347.3064-.0651.4553-.0998.1576-.039.2802-.1692.4422-.2082.0832-.0174.162,0,.2408-.039.07-.0347.1357-.0824.2014-.1258.4203-.2733.7486-.6334,1.0594-1.0195.0788-.1518.1094-.3254.2145-.4729.0657-.0911.127-.1865.197-.2733.0306-.039.07-.0694.1051-.0998.0044-.013.0088-.026.0175-.039.0438-.0911.07-.1648.1445-.2429.0788-.0694.1707-.1345.267-.1822.0044-.0043.0131-.0087.0219-.013.0131-.013.0219-.0304.035-.0434.0876-.1041.1882-.1952.2627-.3123.0919-.1475.1707-.2993.2539-.4555.0175-.0434.0394-.0911.0613-.1388.0482-.0911.1007-.1735.1751-.2516.0044-.0087.0131-.013.0175-.0174.0525-.0651.1138-.1301.162-.1996.0744-.1085.1094-.2429.1751-.3557.1401-.2429.3721-.4251.5604-.6203.1051-.1085.2145-.1605.3371-.2386.1051-.0694.1795-.1779.2758-.2559.2189-.1822.5078-.3123.7705-.4165.1576-.0564.3152-.1085.4728-.1648.1226-.039.2408-.1171.3677-.1475.0919-.0217.1839-.0217.2758-.0477.0744-.0174.1445-.0434.2189-.0607.1401-.026.2758,0,.4159-.013.1488-.013.2846-.0564.4334-.0564.127,0,.2539.0087.3765.0217.1445.0174.2627.0087.3984.0694.127.0651.2539.1171.3852.1735.0657.0304.1357.0564.197.0954.0438.0304.0657.0607.1138.0737.0525.013.1051-.0043.1576.0087s.0832.039.1313.0651c.1182.0651.2452.0694.3634.1475.1138.0781.2408.1605.3502.2473.2101.1648.3765.3948.5647.59.127.1301-.2145.4859-.3283.3601-.2189-.2386-.4203-.4729-.6523-.6984-.1182-.1128-.2101-.2386-.3677-.3037-.07-.026-.1138-.0477-.1751-.0868-.0832-.0521-.1138-.0304-.2058-.0347-.1226-.0087-.2408-.1128-.3546-.1605-.1401-.0651-.2846-.1345-.429-.1952-.1182-.0521-.3064-.0477-.4378-.0564-.1751-.0174-.3458-.0087-.5166.0217ZM15.8422,28.3327c-.1401-.0304-.2714.0217-.4115.039-.1576.0174-.2977-.0043-.4465.0521-.0919.0347-.2058.0043-.3108.0043-.1401,0-.2758-.013-.4159-.0087-.3283.0043-.6698-.0868-.9894-.1475-.1576-.0304-.3064-.0651-.4553-.1128-.1313-.039-.267-.0347-.394-.0824-.127-.0434-.267-.0911-.3896-.1518-.0788-.039-.1051-.0868-.1664-.1388-.0525-.039-.127-.0564-.1664-.1041-.0306-.0347-.0394-.0911-.07-.1345-.035-.0521-.0788-.1041-.1182-.1562-.0963-.1215-.1707-.2559-.2758-.3687-.0963-.0998-.1795-.2082-.2233-.3384-.0569-.1475-.0482-.308-.0788-.4598-.0613-.3254-.2627-.5683-.127-.9067.0569-.1475.1488-.2603.2233-.3991.0876-.1562.1488-.3123.2583-.4555.1007-.1345.2101-.269.324-.3904.0876-.0954.1839-.1345.3108-.1475.0919-.013.1576-.0521.2495-.0694.0263-.0043.1007-.0868.0525-.0911-.2977-.026-.5034.0347-.7267.2343-.2627.2343-.521.4338-.6829.7592-.1445.282-.3196.5292-.3283.8546-.0131.347.1751.642.2101.9804.0175.1475.035.2776.1138.4078.0788.1258.1882.2212.2802.3384.1051.1301.2145.282.3108.4208.035.0564.0482.1301.0963.1779.0525.0477.1313.0607.1839.1085.1138.0998.2233.1432.359.2082.0744.0347.1532.0694.2233.1085s.1226.0434.197.0694c.162.0564.2933.1432.464.1822.197.0434.394.0781.591.1171.3634.0694.7486.1258,1.0988-.0087.07-.0304.1445-.0694.2101-.0911.0832-.0304.2145-.013.3021-.013.2145.0043.4203-.0347.626-.0911.0482-.013.1882-.1735.0919-.1952Z" fill="#a2d9d6"/></g><g clip-path="url(#clippath-3)"><path d="M10.5188,6.3646c-.1532.026-.2933.013-.4422.0174-.1488.0087-.2802.0781-.4246.1041-.3108.0564-.6304.1952-.9281.308-.2933.1128-.5604.2516-.7836.4685-.1007.1041-.2058.1605-.3283.2343-.1226.0694-.2233.2082-.3283.3123-.1094.1085-.2058.2039-.2714.347-.035.0781-.0657.1562-.1094.2299.0044.026.0175.0564.0131.0824-.0044.0521-.0263.0954-.0525.1388-.0569.0911-.1488.1388-.2058.2169-.07.0954-.0876.2126-.1532.308-.07.1041-.1357.2126-.2101.3123-.1313.1735-.2189.3601-.3721.5206-.0219.0217-.0438.0434-.0657.0651-.1401.2126-.2583.4381-.4159.6464-.0963.1258-.2058.2429-.3108.3687-.0832.0998-.1488.2082-.232.3037-.1926.2169-.4028.4381-.6216.6334-.2233.1996-.4816.3731-.7486.5206-.1094.0564-.2101.1041-.3327.1128-.1576.0087-.2627.0824-.4071.1388-.1226.0521-.2408.0347-.3677.0651-.1445.0304-.2933.0651-.4422.0737-.1357.0043-.2583-.0304-.3896-.0694-.1313-.0434-.267-.0434-.4071-.0564-.1576-.0174-.3152-.0217-.4728-.039-.1445-.013-.2802.0174-.4203-.0304-.1357-.0477-.2276-.1605-.324-.2603-.07-.0737-.1445-.1518-.1926-.2429-.0788-.1388.2583-.4512.3458-.2863.0744.1301.2101.2169.3064.3297.0569.0651.0876.1518.1795.1779.0744.0217.162,0,.2364.0174.1576.0304.3064.0868.464.1041.1576.0217.3064.0217.4597.0737.1882.0607.3546.0694.5472.0217.1532-.0347.3064-.0651.4553-.0998.1576-.039.2802-.1692.4422-.2082.0832-.0174.162,0,.2408-.039.07-.0347.1357-.0824.2014-.1258.4203-.2733.7486-.6334,1.0594-1.0195.0788-.1518.1094-.3254.2145-.4729.0657-.0911.127-.1865.197-.2733.0306-.039.07-.0694.1051-.0998.0044-.013.0088-.026.0175-.039.0438-.0911.07-.1648.1445-.2429.0788-.0694.1707-.1345.267-.1822.0044-.0043.0131-.0087.0219-.013.0131-.013.0219-.0304.035-.0434.0876-.1041.1882-.1952.2627-.3123.0919-.1475.1707-.2993.2539-.4555.0175-.0434.0394-.0911.0613-.1388.0482-.0911.1007-.1735.1751-.2516.0044-.0087.0131-.013.0175-.0174.0525-.0651.1138-.1301.162-.1996.0744-.1085.1094-.2429.1751-.3557.1401-.2429.3721-.4251.5604-.6203.1051-.1085.2145-.1605.3371-.2386.1051-.0694.1795-.1779.2758-.2559.2189-.1822.5078-.3123.7705-.4165.1576-.0564.3152-.1085.4728-.1605.1226-.0434.2408-.1215.3677-.1518.0919-.0217.1839-.0217.2758-.0477.0744-.0174.1445-.0434.2189-.0607.1401-.026.2758.0043.4159-.013.1488-.013.2846-.0564.4334-.0564.127,0,.2539.0087.3765.0217.1445.0174.2627.0087.3984.0694.127.0651.2539.1171.3852.1735.0657.0304.1357.0564.197.0954.0438.0304.0657.0607.1138.0737.0525.013.1051-.0043.1576.0087s.0832.0434.1313.0651c.1182.0651.2452.0694.3634.1475.1138.0781.2408.1605.3502.2473.2101.1648.3765.3948.5647.59.127.1345-.2145.4859-.3283.3601-.2189-.2386-.4203-.4729-.6523-.6984-.1182-.1128-.2101-.2386-.3677-.3037-.07-.026-.1138-.0477-.1751-.0868-.0832-.0477-.1138-.0304-.2058-.0347-.1226-.0087-.2408-.1085-.3546-.1605-.1401-.0651-.2846-.1345-.429-.1952-.1182-.0521-.3064-.0434-.4378-.0564-.1751-.0174-.3458-.0087-.5166.026ZM15.8422,12.3729c-.1401-.0304-.2714.0217-.4115.039-.1576.0174-.2977-.0043-.4465.0521-.0919.0347-.2058.0043-.3108.0043-.1401,0-.2758-.013-.4159-.0087-.3283.0043-.6698-.0868-.9894-.1475-.1576-.0304-.3064-.0651-.4553-.1128-.1313-.039-.267-.0347-.394-.0824-.127-.0434-.267-.0868-.3896-.1518-.0788-.039-.1051-.0868-.1664-.1388-.0525-.039-.127-.0521-.1664-.1041-.0306-.0347-.0394-.0911-.07-.1345-.035-.0521-.0788-.1041-.1182-.1562-.0963-.1215-.1707-.2559-.2758-.3687-.0963-.0998-.1795-.2082-.2233-.3384-.0569-.1475-.0482-.308-.0788-.4598-.0613-.3254-.2627-.5683-.127-.9067.0569-.1475.1488-.2603.2233-.3991.0876-.1518.1488-.3123.2583-.4555.1007-.1345.2101-.269.324-.3904.0876-.0954.1839-.1345.3108-.1475.0919-.013.1576-.0521.2495-.0694.0263-.0043.1007-.0868.0525-.0911-.2977-.026-.5034.0347-.7267.2343-.2627.2343-.521.4338-.6829.7592-.1445.282-.3196.5292-.3283.8546-.0131.347.1751.642.2101.9804.0175.1475.035.2776.1138.4078.0788.1258.1882.2212.2802.3384.1051.1301.2145.282.3108.4208.035.0564.0482.1301.0963.1779.0525.0477.1313.0607.1839.1085.1138.0998.2233.1432.359.2082.0744.0347.1532.0694.2233.1085.07.039.1226.0434.197.0694.162.0564.2933.1432.464.1822.197.0434.394.0781.591.1171.3634.0694.7486.1258,1.0988-.0087.07-.0304.1445-.0694.2101-.0911.0832-.0304.2145-.013.3021-.013.2145.0043.4203-.0347.626-.0911.0482-.013.1882-.1735.0919-.1952Z" fill="#a2d9d6"/></g><g clip-path="url(#clippath-4)"><path d="M26.7867,6.3646c-.1532.026-.2889.013-.4422.0174-.1488.0087-.2802.0781-.4246.1041-.3108.0564-.6304.1952-.9281.308-.2933.1128-.5604.2516-.7836.4685-.1007.1041-.2058.1605-.324.2343-.127.0694-.2276.2082-.3283.3123-.1138.1085-.2101.2039-.2758.347-.035.0781-.0657.1562-.1094.2299.0088.026.0175.0564.0131.0824-.0044.0521-.0263.0954-.0525.1388-.0569.0911-.1488.1388-.2058.2169-.07.0954-.0876.2126-.1532.308-.07.1041-.1357.2126-.2101.3123-.127.1735-.2189.3601-.3721.5206-.0219.0217-.0438.0434-.0657.0651-.1401.2126-.2583.4381-.4159.6464-.0963.1258-.2058.2429-.3108.3687-.0788.0998-.1488.2082-.232.3037-.1926.2169-.4028.4381-.6216.6334-.2233.1996-.4816.3731-.7486.5206-.1094.0564-.2101.1041-.3327.1128-.1576.0087-.2627.0824-.4071.1388-.1226.0521-.2408.0347-.3677.0651-.1445.0304-.2933.0651-.4422.0737-.1357.0043-.2583-.0304-.3896-.0694-.1313-.0434-.267-.0434-.4071-.0564-.1576-.0174-.3152-.0217-.4728-.039-.1401-.013-.2802.0174-.4203-.0304-.1313-.0477-.2233-.1605-.324-.2603-.07-.0737-.1445-.1518-.1926-.2429-.0788-.1388.2583-.4512.3458-.2863.0744.1301.2101.2169.3064.3297.0569.0651.0876.1518.1795.1779.0744.0217.162,0,.2364.0174.1576.0304.3064.0868.464.1041.1576.0217.3064.0217.4597.0737.1882.0607.3546.0694.5472.0217.1532-.0347.3064-.0651.4553-.0998.1576-.039.2846-.1692.4422-.2082.0832-.0174.162,0,.2408-.039.07-.0347.1357-.0824.2014-.1258.4203-.2733.7486-.6334,1.0594-1.0195.0788-.1518.1094-.3254.2145-.4729.0657-.0911.127-.1865.197-.2733.035-.039.07-.0694.1051-.0998.0044-.013.0088-.026.0175-.039.0482-.0911.07-.1648.1488-.2429.0744-.0694.1664-.1345.2627-.1822.0088-.0043.0131-.0087.0219-.013.0131-.013.0263-.0304.035-.0434.0876-.1041.1882-.1952.2627-.3123.0919-.1475.1751-.2993.2539-.4555.0175-.0434.0394-.0911.0613-.1388.0482-.0911.1051-.1735.1751-.2516.0044-.0087.0131-.013.0175-.0174.0525-.0651.1138-.1301.162-.1996.0744-.1085.1094-.2429.1751-.3557.1401-.2429.3721-.4251.5604-.6203.1051-.1085.2145-.1605.3371-.2386.1051-.0694.1795-.1779.2758-.2559.2189-.1822.5078-.3123.7705-.4165.1576-.0564.3152-.1085.4728-.1605.127-.0434.2408-.1215.3677-.1518.0919-.0217.1839-.0217.2758-.0477.0744-.0174.1445-.0434.2189-.0607.1401-.026.2758.0043.4159-.013.1488-.013.2889-.0564.4378-.0564.1226,0,.2495.0087.3721.0217.1445.0174.267.0087.3984.0694.127.0651.2539.1171.3852.1735.0657.0304.1357.0564.197.0954.0438.0304.0657.0607.1138.0737.0525.013.1051-.0043.1576.0087s.0832.0434.1313.0651c.1182.0651.2452.0694.3634.1475.1138.0781.2408.1605.3502.2473.2101.1648.3765.3948.5647.59.127.1345-.2145.4859-.3283.3601-.2145-.2386-.4203-.4729-.6523-.6984-.1182-.1128-.2101-.2386-.3677-.3037-.07-.026-.1138-.0477-.1751-.0868-.0832-.0477-.1138-.0304-.2058-.0347-.1226-.0087-.2408-.1085-.3546-.1605-.1401-.0651-.2846-.1345-.429-.1952-.1182-.0521-.3064-.0434-.4334-.0564-.1795-.0174-.3458-.0087-.521.026ZM32.1101,12.3729c-.1401-.0304-.2714.0217-.4115.039-.1532.0174-.2977-.0043-.4422.0521-.0963.0347-.2101.0043-.3152.0043-.1401,0-.2758-.013-.4159-.0087-.3283.0043-.6698-.0868-.9894-.1475-.1576-.0304-.3064-.0651-.4553-.1128-.1313-.039-.267-.0347-.394-.0824-.127-.0434-.267-.0868-.3896-.1518-.0744-.039-.1051-.0868-.1664-.1388-.0525-.039-.127-.0521-.1664-.1041-.0306-.0347-.0394-.0911-.0657-.1345-.0394-.0521-.0832-.1041-.1226-.1562-.0963-.1215-.1707-.2559-.2758-.3687-.0963-.0998-.1751-.2082-.2233-.3384-.0525-.1475-.0482-.308-.0788-.4598-.0613-.3254-.2627-.5683-.127-.9067.0569-.1475.1488-.2603.2233-.3991.0876-.1518.1488-.3123.2583-.4555.1007-.1345.2101-.269.324-.3904.0919-.0954.1839-.1345.3108-.1475.0919-.013.1576-.0521.2495-.0694.0263-.0043.1007-.0868.0525-.0911-.2977-.026-.5034.0347-.7223.2343-.267.2343-.5253.4338-.6873.7592-.1445.282-.3152.5292-.3283.8546-.0131.347.1751.642.2101.9804.0175.1475.035.2776.1138.4078.0788.1258.1882.2212.2802.3384.1051.1301.2145.282.3108.4208.035.0564.0525.1301.0963.1779.0525.0477.1313.0607.1882.1085.1094.0998.2189.1432.3546.2082.0744.0347.1532.0694.2233.1085.07.039.1226.0434.197.0694.162.0564.2933.1432.464.1822.197.0434.394.0781.5954.1171.359.0694.7486.1258,1.0944-.0087.07-.0304.1445-.0694.2101-.0911.0832-.0304.2145-.013.3021-.013.2189.0043.4203-.0347.626-.0911.0482-.013.1882-.1735.0919-.1952Z" fill="#a2d9d6"/></g></svg>